<svg xmlns="http://www.w3.org/2000/svg" width="16.754" height="21.079" viewBox="0 0 16.754 21.079">
  <g id="ADA" transform="translate(-1681.032 -5380.967)">
    <g id="Group_141" data-name="Group 141">
      <circle id="Ellipse_8" data-name="Ellipse 8" cx="1.883" cy="1.883" r="1.883" transform="translate(1687.031 5380.967)" fill="#fff"/>
      <path id="Path_461" data-name="Path 461" d="M1697.685,5396.306a.757.757,0,0,0-1.056-.276l-.9.528-2.572-5.717a.723.723,0,0,0-.551-.437l-3.972-.8.642-3.7a.739.739,0,0,0-.252-.712.816.816,0,0,0-.758-.161l-4.546,1.447a.725.725,0,0,0-.391.3l-2.158,2.985a.774.774,0,0,0,1.263.9l1.975-2.778,1.745-.551-.6,2.985v.114a6.062,6.062,0,1,0,8.358,6.774l.826.941.046.046a.967.967,0,0,0,.322.207.812.812,0,0,0,.229.046.777.777,0,0,0,.391-.115l1.653-.941A.8.8,0,0,0,1697.685,5396.306Zm-9.689,4.179a4.5,4.5,0,1,1,4.5-4.5A4.508,4.508,0,0,1,1688,5400.485Z" fill="#fff"/>
    </g>
  </g>
</svg>
