<svg xmlns="http://www.w3.org/2000/svg" xmlns:xlink="http://www.w3.org/1999/xlink" width="49.246" height="46.911" viewBox="0 0 49.246 46.911">
  <defs>
    <linearGradient id="linear-gradient" x1="1.626" y1="1.005" x2="3.169" y2="1.827" gradientUnits="objectBoundingBox">
      <stop offset="0" stop-color="#0c56b7" stop-opacity="0.29"/>
      <stop offset="0.531" stop-color="#0c5cb7"/>
      <stop offset="1" stop-color="#0c0046"/>
    </linearGradient>
  </defs>
  <path id="bird" d="M1784.789,2006.247c-4.173-.826-8.373-1.534-11.127-5.143-1.576-2.066-3.327-2.489-5.811-1.81a47.067,47.067,0,0,1-8.018,1.3,17.061,17.061,0,0,1-15.667-6.561c-2.4-2.973-4.2-6.649-8.623-5.768.6-1.709,1.192-3.224,1.671-4.774a5.234,5.234,0,0,1,5.5-3.917,20.842,20.842,0,0,1,8.134,2.5c.154-.094.43-.173.444-.284.8-6.409,4.564-10.6,9.884-13.889,4.015-2.481,7.729-5.449,12.09-8.566v9.752l7.68-4.636c.753,8.815-6.438,23.047-13.7,26.768A41.049,41.049,0,0,1,1784.789,2006.247Z" transform="translate(-1735.543 -1959.336)" fill="url(#linear-gradient)"/>
</svg>
