<svg xmlns="http://www.w3.org/2000/svg" width="104.28" height="216.315" viewBox="0 0 104.28 216.315">
  <g id="bulb" transform="translate(-1314.02 -2299.909)">
    <path id="Path_589" data-name="Path 589" d="M1374.547,2464.866c4.338.151,8.675.294,12.194-2.324-.073-.232-.147-.464-.22-.7l-12.109,2.6Z" fill="#606060"/>
    <path id="Path_590" data-name="Path 590" d="M1347.208,2445.545l17.193.735C1358.7,2445.4,1352.987,2444.6,1347.208,2445.545Z" fill="#606060"/>
    <path id="Path_591" data-name="Path 591" d="M1394.334,2418.815a45.321,45.321,0,0,0,.707-5.935c-.044-5.988,1.025-11.718,4.581-17.107,7-10.615,12.683-21.661,16.084-33.4,2.108-7.278,3.209-14.641,2.236-22.108-1.6-12.3-9.093-22.222-19.887-30.669a46.87,46.87,0,0,0-20.682-8.97c-1.271-.234-2.539-.477-3.809-.716h-12.846c-.61.09-1.217.228-1.832.264a43.764,43.764,0,0,0-19.8,5.762c-9.69,5.66-16.665,13.041-20.63,22.1-6.1,13.945-5.771,27.921.112,41.909a109.306,109.306,0,0,0,13.9,23.315c3.956,5.238,6.642,10.842,7.218,17.026.256,2.748.708,5.485,1.07,8.227l.472-.033c-.168-1.576-.38-3.15-.5-4.728a39.251,39.251,0,0,0-8.272-21.615,111.163,111.163,0,0,1-7.737-11.272c-7.677-12.957-12.019-26.425-9.361-40.95,2.129-11.631,7.867-21.755,18.6-29.905a42.207,42.207,0,0,1,20.366-8.694c4.328-.564,8.765-.627,13.16-.8a44.979,44.979,0,0,1,18.294,3.066c14.555,5.685,23.342,15.474,28.927,27.222,4.354,9.156,3.585,18.668,1.321,28.115-3.048,12.717-9.217,24.525-16.515,35.986-2.308,3.626-4.233,7.3-4.409,11.46s-.508,8.3-.772,12.455v.015Z" fill="#606060"/>
    <g id="Group_168" data-name="Group 168">
      <path id="Path_592" data-name="Path 592" d="M1361.038,2513.439a21.335,21.335,0,0,0,2.192-6.841c.317-4.66.364-9.332.391-14a90.428,90.428,0,0,1-3.333,21.979A3.951,3.951,0,0,0,1361.038,2513.439Z" fill="#606060"/>
      <path id="Path_593" data-name="Path 593" d="M1380.986,2476.89c.037-.406-.664-.856-1.28-1.585l-1.655,5.172C1380.045,2479.548,1380.854,2478.337,1380.986,2476.89Z" fill="#606060"/>
      <path id="Path_594" data-name="Path 594" d="M1397.152,2359.634c-1.356-1.183-2.755-1.312-4.017-.063a26.567,26.567,0,0,0-3.038,3.977,26.938,26.938,0,0,0-1.4,2.562c-4.039-1.888-8.318-6.6-8.726-9.5.505-.171,1.038-.323,1.538-.526,3.4-1.381,5.714-3.467,6.283-6.57a2.766,2.766,0,0,0-1.624-3.183,3.769,3.769,0,0,0-4.17.452,10.37,10.37,0,0,0-3.057,3.859c-.6,1.682-.377,3.553-.523,5.5-.555,0-1.3.04-2.037-.007-4.109-.261-6.655-2.332-8.849-4.872a1.829,1.829,0,0,1-.039-2.812c1.794-2.138,3.391-4.4,3.481-7.1.06-1.781-1.086-2.874-3.213-3.21-2.764-.438-4.526.7-4.739,3.136-.232,2.647.819,5.074,2.048,7.478.243.475.37,1.267.048,1.6a60.05,60.05,0,0,1-5.468,5.208,7.041,7.041,0,0,1-7.823.535,7.857,7.857,0,0,0,.4-1.736,54.557,54.557,0,0,0-.155-7.191c-.166-1.317-1.428-2.232-3.345-2.148-1.89.084-3.485,1.032-3.88,2.438a4.3,4.3,0,0,0-.086,1.943c.528,2.749,2.517,4.783,5.085,6.532.418.285,1.012.841.906,1.121a10.778,10.778,0,0,1-7.378,7.094,17.2,17.2,0,0,0-1.233-2.739,12.534,12.534,0,0,0-2.506-2.967,3.826,3.826,0,0,0-4.618-.189,3.967,3.967,0,0,0-1.34,4.647,3.688,3.688,0,0,0,3.593,2.526c1.841.142,3.713.031,5.874.031.112.3.374.905.572,1.526q4.933,15.484,9.852,30.971,1.25,3.93,2.495,7.861c.655,2.689,1.247,5.4,2,8.074.417,1.487.755,2.832-1.283,3.758-.315.143-.424.579-.625.884-4.407,2.983-3.624,6.9,1.73,8.485a12.967,12.967,0,0,0,2.534.579c3.936.336,7.876.764,11.824.84,2.087.04,2.765.645,2.8,2.27-2.349.132-4.651.29-6.957.384-4.332.175-8.683.578-13,.407-7.266-.286-11.937-3.852-13.274-9.607-.171-.739-.334-1.479-.5-2.218-.794,6.431,5.042,11.8,13.321,12.444a46.2,46.2,0,0,0,5.656.061q6.409-.291,12.806-.756a4.051,4.051,0,0,1,3.734,1.314,11.591,11.591,0,0,0,4.784,2.732c1.752.537,3.824.388,5.749.58.908.091,1.8.275,2.7.417l-.023.461a27.771,27.771,0,0,1-2.734.933,38.7,38.7,0,0,1-16.228.48c-3.428-.65-6.806-1.471-10.235-2.115-5.275-.989-10.575-1.93-16.057-1.377-2.718.274-5.172,1-6.607,3.052-2.911,4.173-1.391,7.984,3.956,10.036a1.726,1.726,0,0,1,.394.292l-.5.057c.283,2.515.567,5.03.88,7.813-1.815,1.188-3.317,2.974-2.226,5.361,1.049,2.295,4.043,2.631,6.417,3.47-1.016,3.2-.672,4.07,2.107,6.173a1.323,1.323,0,0,1,.339,1.251c-.613,2.273.3,3.691,3.162,4.16a25.743,25.743,0,0,0,5.808.283c5.579-.38,11.139-.94,16.711-1.389,1.152-.093,2.325-.013,3.868-.013-.544,1.582-1,2.824-1.4,4.08a2.24,2.24,0,0,1-2.763,1.523q-4.915-.646-9.807-1.4c-2.094-.326-4.145-.875-6.252-1.089-1.865-.189-2.506.55-2.085,2.04a10.582,10.582,0,0,0,5.721,6.689c.531.273,1.141.876,1.137,1.324,0,0,.054,1.518-.025,4.027-.027,4.672-.074,9.344-.391,14a21.335,21.335,0,0,1-2.192,6.841,3.951,3.951,0,0,1-.75,1.134q-.142.482-.294.961a8.286,8.286,0,0,0,2.9-4.635,28.726,28.726,0,0,0,1.172-6.578c.161-5.7.054-11.4.054-17.132a10.088,10.088,0,0,1-6.724-6.5c-.431-1.2.124-1.816,1.658-1.593,1.974.288,3.911.735,5.874,1.073,3.665.632,7.338,1.235,11.193,1.881a11.762,11.762,0,0,1-5.634,4.6c-1.3.469-1.569,1.042-1.539,2.051.176,6,.182,12.013.495,18.012a22.392,22.392,0,0,0,1.5,5.757,6.541,6.541,0,0,0,3.268,3.754c-6.094-6.225-4.277-14.675-4.277-14.675h0c-.185-4.368-.285-8.74-.408-13.11-.01-.358.554-.792.97-1.081,1.415-.981,3.031-1.8,4.3-2.892,1.633-1.4,2.608-3.211,4.842-4.3,1.018-.5,1.4-1.936,1.868-3a1.293,1.293,0,0,0-.393-1.369c-1.534-.617-1.667-1.867-2.436-2.833a5.963,5.963,0,0,0-3.018-1.55,10.692,10.692,0,0,0-3.172.049c-4.5.323-8.995.828-13.5.947a51.483,51.483,0,0,1-7.316-.813l-.054-.669a23.077,23.077,0,0,1,4.523-1.107c6.144-.269,12.3-.405,18.453-.491,3.583-.051,7.172.159,10.756.116a4.975,4.975,0,0,0,4.721-2.8,3.283,3.283,0,0,0-1.169-4.56,1.175,1.175,0,0,1-.516-.724c-.128-1.8-.2-3.606-.294-5.644a5.8,5.8,0,0,0,3.915-3.426c.756-2.048-.7-3.423-2.5-4.6,3.793-3.384,4.428-7.012,1.985-10.947,1.685-2.393,1.021-4.346-2.252-4.948a97.149,97.149,0,0,0-11.372-1.074c-2.24-.142-2.4-.143-2.461-2.222,2.01,0,4.025.085,6.026-.015,7.168-.358,12.609-4.475,12.939-9.714l-.022.044,0,.018v-.015c-.314.64-.645,1.274-.936,1.92-1.762,3.9-5.163,6.291-10.273,6.948a51.2,51.2,0,0,1-5.832.238c-2.555.034-2.893-.208-2.636-2.2.064-.495.8-1.035,1.394-1.368,3.927-2.212,4.444-6,.854-7.96-1.441-.789-1.616-1.565-1.305-2.745,1.366-5.181,2.569-10.392,4.05-15.552,2.809-9.789,5.763-19.552,8.674-29.323a13.384,13.384,0,0,1,.746-1.655c.881.208,1.536.383,2.2.517,2.917.589,5.6-.18,6.956-1.978S1399.134,2361.363,1397.152,2359.634Zm-54.657,5a31.4,31.4,0,0,1-4.413.3c-3.581-.24-5.2-2.866-3.484-5.418a3.25,3.25,0,0,1,5.005-.332,31.372,31.372,0,0,1,3.412,4.9Zm37.211,110.672-1.655,5.172-25.742-8.272c5.9,1.336,11.814,1,17.749.165a35.674,35.674,0,0,1,5.047-.425c2.2,0,3.166.807,3.6,2.6-6.84.574-13.566,1.21-20.311,1.664a24.619,24.619,0,0,1-6.137-.445,3.543,3.543,0,0,1-2.218-1.782C1349.371,2472.471,1350.412,2471.775,1352.309,2472.205Zm37.44-6.31a4.315,4.315,0,0,1-4.282,2.931c-3.583.066-7.173-.136-10.757-.094-6.03.071-12.066.14-18.082.438-1.8.09-3.522.981-5.313,1.415a3.064,3.064,0,0,1-1.81-.08c-2.47-1.21-3-3.176-1.655-5.233,4.582.193,9.087.492,13.6.533,2.815.026,5.634-.361,8.455-.513,1.119-.061,2.25.01,3.375.027,2.323.034,4.663.231,6.963.069,2.937-.207,5.661-1,7.6-3.092C1389.9,2463.178,1390.133,2464.468,1389.749,2465.9Zm-41.214-1.04a2.715,2.715,0,0,1,2.888-2,54.93,54.93,0,0,1,6.559.216c3.336.38,6.633.979,9.946,1.486l-.057.294m20.224-5.655c.3,1.735-.265,2.041-2.362,2.349a66.073,66.073,0,0,0-8.4,1.7,25.408,25.408,0,0,1-12,.381c-4.076-.769-8.3-1.064-12.476-1.441a5.326,5.326,0,0,0-4.8,1.614,1.283,1.283,0,0,1-.728.408c-1.62.225-5.613-1.747-6.2-3.029-.732-1.591.418-3.638,2.835-4.785,2.654,2.625,6.138,2.646,9.71,1.991,3.245-.595,6.411-1.466,9.646-2.1a21.775,21.775,0,0,1,4.255-.333q9.04.051,18.08.231a2.118,2.118,0,0,1,1.461.6A6.768,6.768,0,0,1,1388.095,2459.2Zm-43.3-3.119c5.769-1.334,11.519-.687,17.323-.506C1358,2458.417,1347.376,2458.785,1344.8,2456.081Zm23.989-.512,0-.53c5.585-.917,11.169-1.828,16.743-.114l-.028.644Zm21.158-6.849c1.078.863,1.983,1.763,1.609,3.043a4.833,4.833,0,0,1-3.73,3.33,2.031,2.031,0,0,1-1.378-.079c-2-1.61-4.614-1.711-7.065-1.561-4.115.25-8.191.894-12.289,1.337a28.543,28.543,0,0,1-4.085.244c-6.019-.225-12.041-.894-18.023.349a1.63,1.63,0,0,1-1.276-.486,6.841,6.841,0,0,1-.4-6.644c7.54,1.207,14.71-.364,21.96-1.248a19.658,19.658,0,0,1,5.188.149c3.332.5,6.585,1.383,9.932,1.767a31.172,31.172,0,0,0,6.675-.236C1388.055,2448.581,1388.909,2447.893,1389.943,2448.72ZM1343.576,2447a17.214,17.214,0,0,1,3.632-1.46c5.779-.947,11.491-.145,17.193.735-6.778,1.226-13.548,2.46-20.539,1.422Zm27.382-.588c5.905-.443,11.28-.372,16.617,1.183C1384.99,2449.651,1378.785,2448.217,1370.958,2446.417Zm18.345.505a1.89,1.89,0,0,1-1.309.2,40.121,40.121,0,0,0-16.363-1.321c-3.867.393-7.477-.531-11.211-.728-4.248-.224-8.52-.237-12.78-.209a5.394,5.394,0,0,0-4.276,1.931,1.95,1.95,0,0,1-1.494.367c-3.055-.756-4.837-3.093-4.43-5.658.619-3.908,2.707-5.615,7.627-6.093,5.417-.527,10.641.478,15.851,1.455,2.938.551,5.854,1.186,8.762,1.833a38.992,38.992,0,0,0,15.87.138c1.757-.333,3.435-.932,5.339-1.463C1393.372,2439.4,1392.666,2444.7,1389.3,2446.922Zm-12.448-15.97c4.126.45,8.3.708,12.359,1.418,2.729.478,3.3,2.294,1.96,3.538-1.959-.163-3.649-.377-5.347-.428-3.392-.1-6.458-.728-8.623-3.033a6.874,6.874,0,0,1-.614-.879Zm4.638-83.164a3.926,3.926,0,0,1,4.354-.938c1.709.789,1.638,2.209,1.137,3.5-1.127,2.9-3.643,4.7-7.525,5.65C1378.589,2352.864,1378.773,2350.1,1381.493,2347.788Zm-17.847-6.664c.25-1.931,1.533-2.684,3.819-2.4,2.186.269,3.3,1.432,2.929,3.207-.554,2.681-2.272,4.928-4.256,7.358C1364.48,2346.538,1363.277,2343.976,1363.646,2341.124Zm-18.341,8.347a3.364,3.364,0,0,1-.058-1.352c.18-1.348,1.511-2.318,3.294-2.47a2.679,2.679,0,0,1,3.115,1.9c.923,2.758.429,5.476-.5,8.473C1348.1,2354.229,1346.079,2352.2,1345.305,2349.471Zm12.649,76.95c-4.26-1.2-5.084-3.2-2.795-6.322.374-.51.69-1.047,1.03-1.572l2.558-1.361c.81,2.858,1,5.91,4.637,7.538,3.348,1.5,6.824,1.418,10.49.6.149.9.277,1.673.432,2.613C1368.658,2427.861,1363.193,2427.892,1357.954,2426.421Zm4.323-10.759c1.832-.452,3.752-.677,5.632-1.005l.069.265c.5,0,1.007,0,1.51,0,4.151-.027,5.348,1.05,4.875,4.307a35.653,35.653,0,0,0-.423,4.352c-.018.817-.39,1.127-1.326,1.349-6.043,1.429-11.025-.659-12.824-5.426C1358.855,2417.027,1359.178,2416.427,1362.277,2415.662Zm16.452,3.93c.019,2.237-1.545,3.621-4.372,4.825.214-2.834.407-5.385.624-8.265C1377.12,2417.04,1378.713,2417.79,1378.729,2419.592Zm9.4-52.009c-4.757,11.957-7.274,24.337-10.731,36.538-1.027,3.626-1.855,7.289-2.811,11.08-5.166-1.277-10.236-1.324-15.233.789l-3.293-10.153a6.879,6.879,0,0,0-.128-1.576q-5.96-19.17-11.932-38.337c-.13-.419.019-1.221.347-1.354a12.262,12.262,0,0,0,7.1-7.6c.422.08.773.118,1.1.212a8.062,8.062,0,0,0,8.059-1.584c1.845-1.637,3.575-3.357,5.418-5.1,1.022,1.081,1.946,2.147,2.984,3.135a12.507,12.507,0,0,0,8.816,3.212,2.243,2.243,0,0,1,1.613.779,21.536,21.536,0,0,0,8.188,8.728A1.247,1.247,0,0,1,1388.133,2367.583Zm9.068-1.687c-1.844,1.6-5.061,1.791-8.062.274a67.38,67.38,0,0,1,3.877-5.729c1.306-1.586,2.786-1.458,4.192.071C1398.9,2362.345,1398.892,2364.428,1397.2,2365.9Z" fill="#606060"/>
    </g>
  </g>
</svg>
