<svg xmlns="http://www.w3.org/2000/svg" width="137.678" height="41.811" viewBox="0 0 137.678 41.811">
  <path id="cloud2" d="M1727.183,264.1a1.748,1.748,0,0,1-1.261-.721,8.109,8.109,0,0,0-6.495-3.246h-.109a14.681,14.681,0,0,0-24.845-8.953,1.673,1.673,0,0,1-2.575-.236,16.378,16.378,0,0,0-7.374-5.911,1.649,1.649,0,0,1-.936-.95,23.883,23.883,0,0,0-45.4,2.115,1.622,1.622,0,0,1-1.917,1.148,14.7,14.7,0,0,0-17.53,11.488,1.616,1.616,0,0,1-1.686,1.327c-.224-.019-.451-.028-.679-.028a8.125,8.125,0,0,0-7.093,4.152,1.652,1.652,0,0,1-1.272.8l-.25.027a1.66,1.66,0,0,0,.189,3.309H1740.31a1.658,1.658,0,0,0,.143-3.309C1736.33,264.761,1731.891,264.42,1727.183,264.1Z" transform="translate(-1605.293 -227.602)" fill="none" stroke="#fff" stroke-miterlimit="10" stroke-width="2"/>
</svg>
