<svg xmlns="http://www.w3.org/2000/svg" width="173.093" height="37.206" viewBox="0 0 173.093 37.206">
  <path id="cloud1" d="M385.643,627.02a.045.045,0,0,1-.036-.022,7.181,7.181,0,0,0-6.131-3.439h-.1a12.983,12.983,0,0,0-23.172-6.573.085.085,0,0,1-.154-.015,14.474,14.474,0,0,0-8.044-6.991.015.015,0,0,1-.009-.01,21.119,21.119,0,0,0-40.689,2.66,12.988,12.988,0,0,0-17.065,11.15.03.03,0,0,1-.038.026,7,7,0,0,0-1.858-.247,7.186,7.186,0,0,0-6.273,3.672,1.456,1.456,0,0,1-1.125.7l-26.109,2.873a.039.039,0,0,0,0,.078H425.86c.046,0,.056-.067.011-.073C422.815,630.417,407.392,628.5,385.643,627.02Z" transform="translate(-253.808 -594.679)" fill="none" stroke="#fff" stroke-miterlimit="10" stroke-width="2"/>
</svg>
