<svg xmlns="http://www.w3.org/2000/svg" width="21.604" height="21.601" viewBox="0 0 21.604 21.601">
  <g id="downloadIcon" transform="translate(-8815.62 -1802.129)">
    <path id="Path_1575" data-name="Path 1575" d="M8834.818,1821.307v-.351c0-1.059-.007-2.119,0-3.178a1.2,1.2,0,0,1,2.375-.294,1.667,1.667,0,0,1,.025.335q0,2.305,0,4.612a1.2,1.2,0,0,1-1.295,1.3h-18.984a1.208,1.208,0,0,1-1.322-1.329c0-1.556,0-3.112,0-4.667a1.194,1.194,0,0,1,2.316-.42,1.8,1.8,0,0,1,.084.55c.007,1.04,0,2.081,0,3.121v.322Z" fill="#fff"/>
    <path id="Path_1576" data-name="Path 1576" d="M8825.227,1814.831v-.405q0-5.5,0-10.994a1.209,1.209,0,0,1,1.038-1.292,1.2,1.2,0,0,1,1.352,1.23c0,1.855,0,3.711,0,5.567v5.888c.118-.109.19-.171.258-.238q1.2-1.191,2.392-2.381a1.205,1.205,0,0,1,1.754-.065,1.188,1.188,0,0,1-.057,1.751q-2.3,2.3-4.594,4.592a1.2,1.2,0,0,1-1.875,0q-2.3-2.295-4.593-4.593a1.2,1.2,0,1,1,1.7-1.684q1.172,1.173,2.343,2.35C8825.015,1814.631,8825.09,1814.7,8825.227,1814.831Z" fill="#fff"/>
  </g>
</svg>
