<svg xmlns="http://www.w3.org/2000/svg" width="53.446" height="33.847" viewBox="0 0 53.446 33.847">
  <g id="email-org" transform="translate(-8439.664 -1515.264)">
    <path id="Path_1579" data-name="Path 1579" d="M8489.978,1548.144l-46.688.06c-1.663,0-3.167-.44-3.167-2.1l.672-27.849a2.114,2.114,0,0,1,2.435-2.423l46.749-.06a2.2,2.2,0,0,1,2.5,2.483l.167,28.155C8492.64,1548.07,8491.641,1548.144,8489.978,1548.144Z" fill="#ff8e2c"/>
    <g id="Group_598" data-name="Group 598">
      <path id="Path_1580" data-name="Path 1580" d="M8466.606,1549.111q-12.337,0-24.672,0c-1.613,0-2.271-.323-2.271-1.963,0-10.066.457-20.013.458-30.079,0-1.541.259-1.8,1.787-1.8h49.432c1.479,0,1.769.287,1.769,1.732q0,15.191,0,30.381c0,1.5-.23,1.732-1.742,1.733Q8478.988,1549.113,8466.606,1549.111ZM8443.89,1517.2l22.725,17.608,22.721-17.608Zm27.688,16.181c-1.315,1.023-2.582,2.006-3.846,2.993-.991.774-1.234.777-2.217.014-1.282-1-2.567-1.994-3.873-3.006l-17.717,13.769H8489.3Zm1.549-1.19,17.994,13.945v-27.891Zm-31-13.935v27.869l17.977-13.934Z" fill="#fff"/>
    </g>
  </g>
</svg>
