<svg xmlns="http://www.w3.org/2000/svg" width="39.216" height="39.235" viewBox="0 0 39.216 39.235">
  <path id="Facebook-org" d="M8262.37,1509.806h-34.91a2.16,2.16,0,0,0-2.161,2.158v0h0v34.911a2.161,2.161,0,0,0,2.161,2.161h18.8v-15.194h-5.14v-5.906h5.115v-4.372c0-5.066,3.091-7.826,7.6-7.826a40.683,40.683,0,0,1,4.562.236v5.292h-3.133c-2.47,0-2.939,1.177-2.939,2.889v3.784h5.865l-.768,5.906h-5.058v15.194h10a2.162,2.162,0,0,0,2.161-2.159v-34.913A2.163,2.163,0,0,0,8262.37,1509.806Z" transform="translate(-8225.299 -1509.806)" fill="#ff8e2c"/>
</svg>
