<svg xmlns="http://www.w3.org/2000/svg" width="26.698" height="26.71" viewBox="0 0 26.698 26.71">
  <path id="Facebook-10" d="M1640.872,25.862h-23.766a1.47,1.47,0,0,0-1.471,1.469h0V51.1a1.471,1.471,0,0,0,1.471,1.471h12.8V42.227h-3.5V38.206h3.482V35.229c0-3.448,2.1-5.327,5.172-5.327a27.791,27.791,0,0,1,3.106.16v3.6h-2.133c-1.682,0-2,.8-2,1.967v2.576h3.993l-.523,4.021h-3.443V52.572h6.8a1.473,1.473,0,0,0,1.472-1.47V27.334A1.473,1.473,0,0,0,1640.872,25.862Z" transform="translate(-1615.635 -25.862)" fill="#fff"/>
</svg>
