<svg xmlns="http://www.w3.org/2000/svg" width="131.423" height="111.757" viewBox="0 0 131.423 111.757">
  <path id="handImg" d="M1028.612,2445.33a41.84,41.84,0,0,0-4.047-6.011c-7.659-9.553-17.184-17.072-26.934-24.3-5.241-3.886-10.645-7.577-16.163-11.058-4.293-2.709-8.789-5.112-13.3-7.458a11.9,11.9,0,0,0-11.123.025,46.716,46.716,0,0,1-4.7,2.387,87.965,87.965,0,0,1-9.358,3.382c-3.274.894-4.882-1.432-3.568-4.293,1.914-4.168,4.126-8.206,6.372-12.209a10.832,10.832,0,0,1,2.77-2.855c8.484-6.833,21.612-7.774,30.66-1.793a160.977,160.977,0,0,1,15.793,11.957,20.888,20.888,0,0,0,9.287,4.742q-.227-.233-.458-.486a12.529,12.529,0,0,0-2.608-2.205c-3.288-2.041-4.822-1.974-7.206-4.383a42.8,42.8,0,0,0-5.369-4.349c-3.384-2.456-6.746-4.963-10.291-7.169a22.982,22.982,0,0,0-15.364-3.079c-13.288,1.567-20.913,9.4-24.769,21.648a8.041,8.041,0,0,0-.369,2.141,2.746,2.746,0,0,0,2.728,3.167,14.489,14.489,0,0,0,5.5-.385,57.227,57.227,0,0,0,9.755-4.4c4.612-2.7,9.052-2.837,13.563-.1,7.4,4.488,14.871,8.863,22.08,13.636a146,146,0,0,1,14.145,10.773c5.249,4.483,10.307,9.217,15.165,14.122a44.392,44.392,0,0,1,6.428,8.545,16.248,16.248,0,0,1,1.921,6.5c.256,2.462-1.456,3.7-3.877,3.121a16.745,16.745,0,0,1-4.579-1.691c-3.7-2.184-7.422-4.383-10.89-6.912-7.006-5.11-13.846-10.447-20.766-15.675a19.255,19.255,0,0,0-2.585-1.692,7.194,7.194,0,0,0-1.772-.427,6.969,6.969,0,0,0,.734,1.618,25.078,25.078,0,0,0,1.827,1.77c6.6,6.681,13.347,13.237,19.725,20.13a28.452,28.452,0,0,1,4.815,8.236,5.846,5.846,0,0,1-2.148,7.119c-3.392,2.445-10.658.75-12.73-2.886a40.3,40.3,0,0,0-15.152-15.6,12.8,12.8,0,0,0-3.7-1.412c-1.6-.323-2.439.7-1.7,2.135a18,18,0,0,0,3.014,4.268,73.152,73.152,0,0,0,15.821,11.863c2.8,1.638,2.839,4.192,2.684,6.784a4.6,4.6,0,0,1-4.034,4.361c-5.2.9-9.973.15-14.092-3.724a118.4,118.4,0,0,0-10.2-8.141,12.018,12.018,0,0,0-3.631-1.621,5.539,5.539,0,0,0-2.04.173c.094.667.162,1.339.3,2,.046.226.255.419.6.958-3.017-1.432-5.476-.749-7.789.652a25.219,25.219,0,0,0-9.023,9.54,3.354,3.354,0,0,1-1.09,1.378,13.837,13.837,0,0,1-11.41,1.123c-1.8-.628-3.307-1.985-2.888-3.9a14.171,14.171,0,0,1,2.675-5.786,84.655,84.655,0,0,1,6.954-6.9c2.3-2.233,4.517-4.576,6.955-6.651a11.278,11.278,0,0,1,7.216-2.648c3.447-.066,4.84,1.709,3.834,4.982-.479,1.558-1.233,3.029-1.814,4.558a18.218,18.218,0,0,0-.512,1.934,1.73,1.73,0,0,0,1.505-.437c2.006-2.554,3.689-5.28,4-8.616.4-4.243-2.162-6.837-6.428-6.572a13.193,13.193,0,0,0-7.365,3.271,72.789,72.789,0,0,0-13.978,14.25,10.621,10.621,0,0,1-7.39,4.388c-2.613.414-5.362.553-7.125-1.966-1.742-2.489-.866-5.065.473-7.377a28.407,28.407,0,0,1,15.442-13.122,4.737,4.737,0,0,1,5.481,1.8c.71,1.06,1.239,2.242,1.969,3.285.6.857,1.258.88,1.718-.223,1.349-3.238-.4-7.461-3.763-8.268a7.831,7.831,0,0,0-4.907.428,60.249,60.249,0,0,0-7.467,4.777,17.045,17.045,0,0,1-9.868,3.146c-.8,0-2.076-.422-2.307-.987-1.256-3.079-3.814-4.7-6.52-6.06l-12.329-3.731a132.941,132.941,0,0,1,13.345,5.683c1.409.658,2.515,1.963,3.76,2.972l-.413.476c-1.258-.921-2.49-1.882-3.781-2.754a29,29,0,0,0-4.014-2.471c-2.981-1.368-5.441.213-5.462,3.482a9.154,9.154,0,0,0,4.176,8.227c4.193,2.716,9.981,1.612,11.3-3.673.022-.091.174-.149.266-.223.013.111.025.221.037.331l7.83-.767a18.091,18.091,0,0,0-1.567,1.742c-1.512,2.177-3.312,4.239-4.435,6.6-2.832,5.943.534,10.691,7.076,9.952,1.722-.2,3.411-.673,5.239-1.049-.313.946-.639,1.775-.851,2.644a5.4,5.4,0,0,0,3.12,6.13,7.961,7.961,0,0,0,3.368.832c2.928-.1,5.844-.528,8.781-.824.569,4.586,2.255,6.685,6.256,7.384a9.247,9.247,0,0,0,6.973-1.309,8.306,8.306,0,0,0,3.608-6.2,37.046,37.046,0,0,0,12.545,5.9,13.932,13.932,0,0,0,3.559.473,5.5,5.5,0,0,0,3.554-1.25c2.874-2.444.824-5.7-.009-7.694a68.808,68.808,0,0,0,8.807.925,7.045,7.045,0,0,0,6.9-8.184c-.109-.742-.249-1.456-.4-2.315,1.5.547,2.836,1.111,4.216,1.52,3.207.949,6.167.511,8.543-2a7.2,7.2,0,0,0,1.267-8.312,29.831,29.831,0,0,0-4.579-7.57c-4.517-5.142-9.373-9.988-14.108-14.938a22.4,22.4,0,0,0-1.7-1.472c.115-.133.23-.265.345-.4.518.358,1.051.7,1.55,1.077,5.052,3.878,9.955,7.97,15.189,11.582a148.245,148.245,0,0,0,13.735,8.114c1.865,1.01,4.152,1.433,5.976-.281s1.565-3.977,1.036-6.1A15.86,15.86,0,0,0,1028.612,2445.33Zm-50.251,4.809a.731.731,0,0,1,.795-1.117c8.585,2.346,16.287,15.088,16.287,15.088A40.052,40.052,0,0,1,978.361,2450.139Zm-22.035.368c4.537-.919,7,2.3,5.375,7.458.067-2.414-.164-4.418-2.146-5.027a15.025,15.025,0,0,0-5.322-.381,18.671,18.671,0,0,0-3.909,1.116l-.228-.546C952.167,2452.227,954.161,2450.946,956.326,2450.507Zm-12.974-3.589c1.69,1.121,2.283,2.918,1.668,5.6-1.862-3.575-3.783-6.547-8.34-5.089C938.891,2446.092,941.057,2445.4,943.352,2446.918Zm-26.846,8.45a5.366,5.366,0,0,1-5.64,3.363,8.109,8.109,0,0,1-7.314-8.1c-.035-2.757,1.773-4.085,4.114-2.722,3.017,1.757,5.855,3.832,8.7,5.863C916.659,2453.977,916.666,2454.884,916.506,2455.368Zm61.528,17.935c-4.753-2.237-9.457-4.547-12.926-8.7C970.32,2466.181,974.381,2469.44,978.034,2473.3Zm-15.631,6.862c-.51,3.986-3.495,6.442-7.665,6.773a25.12,25.12,0,0,1-4.6-1.919c-2.77-1.841-2.793-5.331-.383-7.534,1.922-1.756,3.66-3.714,5.545-5.513a17.555,17.555,0,0,1,3.242-2.606,2.9,2.9,0,0,1,4.45,2.646C962.917,2474.734,962.748,2477.465,962.4,2480.165Zm-3.334-12.359a3.994,3.994,0,0,1,5.516.37c2.068,2.232,1.836,5.217-.771,8.039C964.2,2469.085,963.4,2467.707,959.069,2467.806Zm24.556,14.627a2.651,2.651,0,0,1-2.383,2.6,13.7,13.7,0,0,1-5.332-.407,84.73,84.73,0,0,1-9.926-4.4c-2-1.024-2.076-1.745-.76-3.6,2-2.814,2.742-5.656.839-8.45,4.544,2.45,9.311,5.025,14.082,7.593C981.8,2476.662,983.863,2480.564,983.625,2482.433Z" transform="translate(-899.029 -2375.963)" fill="#606060"/>
</svg>
