<svg xmlns="http://www.w3.org/2000/svg" width="27.452" height="27.401" viewBox="0 0 27.452 27.401">
  <g id="Group_59" data-name="Group 59" transform="translate(-1719.85 -25.517)">
    <path id="Path_9" data-name="Path 9" d="M1733.551,28.016c3.649,0,4.084,0,5.525.081a7.421,7.421,0,0,1,2.54.471,4.547,4.547,0,0,1,2.588,2.588,7.417,7.417,0,0,1,.47,2.54c.069,1.441.081,1.879.081,5.525s0,4.083-.081,5.524a7.412,7.412,0,0,1-.47,2.539,4.549,4.549,0,0,1-2.588,2.589,7.493,7.493,0,0,1-2.54.471c-1.441.068-1.874.079-5.525.079s-4.083,0-5.524-.079a7.5,7.5,0,0,1-2.541-.471,4.55,4.55,0,0,1-2.562-2.6,7.418,7.418,0,0,1-.47-2.539c-.069-1.442-.081-1.879-.081-5.526s0-4.083.081-5.524a7.428,7.428,0,0,1,.47-2.54,4.557,4.557,0,0,1,2.562-2.563,7.474,7.474,0,0,1,2.541-.47c1.441-.069,1.879-.081,5.524-.081m0-2.465c-3.711,0-4.177,0-5.637.08a10.058,10.058,0,0,0-3.321.641,6.954,6.954,0,0,0-4.022,4.023,10.03,10.03,0,0,0-.641,3.321c-.063,1.46-.08,1.921-.08,5.637s0,4.177.08,5.637a10.015,10.015,0,0,0,.689,3.269,6.954,6.954,0,0,0,4.022,4.023,10.068,10.068,0,0,0,3.323.64c1.458.064,1.921.08,5.636.08s4.177,0,5.637-.08a10.057,10.057,0,0,0,3.321-.64,6.956,6.956,0,0,0,4.023-4.023,10.062,10.062,0,0,0,.641-3.322c.063-1.459.08-1.921.08-5.637s0-4.177-.08-5.636a10.092,10.092,0,0,0-.641-3.322,6.958,6.958,0,0,0-4.023-4.021,10.033,10.033,0,0,0-3.321-.641c-1.46-.063-1.922-.079-5.637-.079Z" fill="#fff"/>
    <path id="Path_10" data-name="Path 10" d="M1733.552,32.2a7.022,7.022,0,1,0,7.022,7.022h0A7.022,7.022,0,0,0,1733.552,32.2Zm0,11.579a4.556,4.556,0,1,1,4.555-4.556h0A4.555,4.555,0,0,1,1733.552,43.779Z" fill="#fff"/>
    <circle id="Ellipse_1-9" data-name="Ellipse 1-9" cx="1.643" cy="1.643" r="1.643" transform="translate(1739.206 30.28)" fill="#fff"/>
  </g>
</svg>
