<svg xmlns="http://www.w3.org/2000/svg" width="27.368" height="27.3" viewBox="0 0 27.368 27.3">
  <g id="Linkedin-10" transform="translate(-1775.651 -23.255)">
    <path id="Path_7-3" data-name="Path 7-3" d="M1776.095,32.316h5.671V50.554h-5.671Zm2.839-9.061a3.283,3.283,0,1,1-3.283,3.283h0a3.283,3.283,0,0,1,3.283-3.283h0" fill="#fff"/>
    <path id="Path_8" data-name="Path 8" d="M1785.323,32.317h5.43v2.494h.1a5.952,5.952,0,0,1,5.365-2.942c5.746,0,6.8,3.775,6.8,8.683v10h-5.664V41.689c0-2.114-.035-4.839-2.942-4.839s-3.4,2.3-3.4,4.684v9.021h-5.666Z" fill="#fff"/>
  </g>
</svg>
