<svg xmlns="http://www.w3.org/2000/svg" width="40.202" height="40.102" viewBox="0 0 40.202 40.102">
  <g id="Linkedin-org" transform="translate(-8367.05 -1505.976)">
    <path id="Path_7-3" data-name="Path 7-3" d="M8367.7,1519.286h8.33v26.79h-8.33Zm4.17-13.31a4.823,4.823,0,1,1-4.823,4.823h0a4.823,4.823,0,0,1,4.823-4.823h0" fill="#ff8e2c"/>
    <path id="Path_8" data-name="Path 8" d="M8381.259,1519.287h7.977v3.664h.151a8.745,8.745,0,0,1,7.88-4.321c8.44,0,9.985,5.545,9.985,12.754v14.694h-8.319v-13.024c0-3.1-.052-7.108-4.321-7.108s-5,3.378-5,6.88v13.252h-8.323Z" fill="#ff8e2c"/>
  </g>
</svg>
