<svg xmlns="http://www.w3.org/2000/svg" width="31.229" height="38.258" viewBox="0 0 31.229 38.258">
  <g id="mobMsg" transform="translate(-3668.475 -1460.503)">
    <path id="Path_1906" data-name="Path 1906" d="M3688.047,1491.853h-16.868v-28.446h16.868v1.679h2.746v-2.844a1.743,1.743,0,0,0-1.739-1.739h-18.841a1.744,1.744,0,0,0-1.738,1.739v34.781a1.744,1.744,0,0,0,1.738,1.738h18.841a1.742,1.742,0,0,0,1.738-1.738v-15.262h-2.745v10.092Zm-6.583,3.4a1.831,1.831,0,1,1-1.832-1.829,1.834,1.834,0,0,1,1.832,1.829" fill="#ff9e18"/>
    <path id="Path_1907" data-name="Path 1907" d="M3694.683,1466.341h-6.592a5.023,5.023,0,0,0-5.021,5.022v4.122a5.008,5.008,0,0,0,1.953,3.968,7.6,7.6,0,0,1-1.465,2.305c-.051.06-.083.1-.025.164,1.284.233,2.671-.633,3.688-1.5a5,5,0,0,0,.87.08h6.592a5.021,5.021,0,0,0,5.021-5.019v-4.122A5.023,5.023,0,0,0,3694.683,1466.341Zm-6.851,8.249a1.115,1.115,0,1,1,1.115-1.115A1.116,1.116,0,0,1,3687.832,1474.59Zm3.555,0a1.115,1.115,0,1,1,1.115-1.115A1.117,1.117,0,0,1,3691.387,1474.59Zm3.554,0a1.115,1.115,0,1,1,1.114-1.115A1.117,1.117,0,0,1,3694.941,1474.59Z" fill="#ff9e18"/>
  </g>
</svg>
