<svg xmlns="http://www.w3.org/2000/svg" width="233.046" height="269.531" viewBox="0 0 233.046 269.531">
  <path id="ourpeople" d="M576.509,2530.7c-.331,3.333-2.651,3.187-4.887,2.985q-5.181-.468-10.339-1.164a5.09,5.09,0,0,1-2.707-1.488c5.185-1.956,10.584-.87,16.343-1.491-.505-3.97-.909-7.846-1.506-11.693-1.214-7.813-2.458-15.623-3.888-23.4a5.133,5.133,0,0,0-2.328-3.107c-4.38-2.427-8.932-4.543-13.356-6.9-.825-.439-1.352-1.442-2.016-2.184.883-.469,1.739-1.269,2.656-1.348a109.076,109.076,0,0,0,11.081-1.11c-1.39-.672-2.8-1.3-4.164-2.025-2.459-1.313-4.967-2.562-7.3-4.078-1.684-1.095-2.726-2.633-.793-4.154l-19.073-5.692c.719,6.3,1.4,13.191,2.31,20.048,1.647,12.419,3.287,24.842,5.247,37.214.562,3.551,2.214,6.93,3.206,9.906-4.556,0-9.791.021-15.026,0-18.325-.086-36.65-.246-54.974-.215-2.511,0-5.04.852-7.522,1.463-1.958.482-3.831,1.308-5.789,1.788-2.773.68-5.247.415-6.21-2.9-7.572,2.581-15.065,4.567-22.914,3.061l-.36-1.24c1.094-.515,2.15-1.361,3.287-1.489q8.328-.93,16.692-1.522c3.621-.262,3.568-.151,3.2-3.868-.8-8.059-2.05-16.12-2.138-24.19-.072-6.675,1.252-13.365,1.977-20.046.161-1.487.4-2.965.649-4.724,1.765,2.159,1.981,4.29,1.2,11.647l10.091-6.285c-.367,6.488-4.666,10.549-6.806,15.965a34.3,34.3,0,0,1,4.72-1.583,22.843,22.843,0,0,1,4.126-.013,18.484,18.484,0,0,1-.692,4.033c-2.225,5.434-4.818,10.726-6.856,16.226-1.49,4.017-2.323,8.278-3.465,12.49,3.591,0,7.232.146,10.844-.112.8-.057,2.022-1.448,2.175-2.371,1.044-6.271,2.129-12.558,2.677-18.884.966-11.144,1.5-22.325,2.347-33.48.174-2.309-.546-3.445-2.83-3.7-4.5-.491-8.987-1.2-13.5-1.516-5.272-.375-9.985-1.824-13.96-5.485a5.794,5.794,0,0,0-3.348-1.209c-5.289-.355-10.615-.3-15.876-.866-4.243-.459-8.413-1.6-12.932-2.505-2,7.5-3.65,15.7-2.766,24.269a218.957,218.957,0,0,0,7.908,40.829c.811,2.691,2.039,5.256,2.945,7.553m197.067-8.951c-4.245-18.464-7.46-37.047-6.224-56.681-9.841.875-19.707,1.564-29.523,2.679-9.775,1.111-19.686-.23-29.558,1.577,3.511,4.653,8.767,5.866,13.323,8.374.433-1.008.8-1.849,1.444-3.356,1.051,1.207,2.062,1.951,2.5,2.946a82.714,82.714,0,0,1,3.651,9.413c1.343,4.493.773,5.1-3.97,4.907,1.069,6.6,2.156,13.135,3.181,19.682.7,4.478,2.751,15.409,2.751,16.871.2,2.821.12.218,3.027.235,22.665.128,18.38-2.5,41.042-2.175m-201,3.179c-.132-.58-.22-1.2-.414-1.774a182.488,182.488,0,0,1-9.2-46.693c-.36-5.873.632-11.89,1.52-17.763.918-6.07,1.191-6.028-1.253-11.584-.858-.181-1.882-.117-2.473-.592a10.206,10.206,0,0,1-1.727-2.505c.839-.486,1.753-1.479,2.5-1.37,2.857.416,3.453-1.282,3.726-3.444.87-6.882,1.744-13.764,2.549-20.654a2.847,2.847,0,0,0-.5-2.118c-3.934-3.747-5.256-8.747-6.341-13.711A154.135,154.135,0,0,1,405.5,2392.4c-.2-1.829-.3-4.312,2.72-4.532-.527,1.8-1.5,3.6-1.5,5.4-.019,8.295,2.181,16.161,5.28,23.784a33.783,33.783,0,0,0,2.74,4.394c1.694-12.251-.809-23.274-1.862-34.492l-4.748,1a28.022,28.022,0,0,0,3.112-1.978,14.063,14.063,0,0,0,1.819-2.22l-.663-.55a28.185,28.185,0,0,0-4.554,2.366c-2.285,1.748-3.186.528-3.517-1.5a43.1,43.1,0,0,1-.786-8.295c.215-6.449.557-12.908,1.248-19.319a18.466,18.466,0,0,1,2.606-6.616c.534-.959,2.055-2.1,2.985-1.984,4.846.6,8.22-3.558,12.732-4.038l-13.913,1.845c6.444-4.858,6.788-11.884,8.125-18.449,1.652-8.118,3.008-16.3,4.8-24.387a44.63,44.63,0,0,1,3.328-8.6c2.816-6.19,9.331-11.521,18.992-9.8.368.065.847.251,1.1.1,2.981-1.827,5.474-.171,7.767,1.306,10.223,6.588,15.484,15.936,14.816,28.217a84.313,84.313,0,0,1-7.652,30.077l5.961,2.7V2342.5l6.374,2.688,7.224-9.049,1.217.465v7.795l.733.085c1.393-2.04,2.681-4.165,4.23-6.078.651-.8,1.856-1.158,2.81-1.716.533,1.049,1.074,2.094,1.591,3.151a1.01,1.01,0,0,1,.051.571c-.847,5.2,1.592,8.39,6.447,10.146.2-.948.39-2.044.672-3.115.908-3.447,2.967-4.288,6.049-2.424,4.266,2.58,5.6,6.652,5.521,11.381,3.21-.845,4.4-.444,4.979,2.772a53.418,53.418,0,0,1,.769,11.414c-.1,2.588-1.656,3.17-4.1,2.273a5.267,5.267,0,0,1-.789-.358c-3.24-1.836-6.435-3.867-10.525-1.8,5.295-6.735,5.295-6.735,3.778-10.3l-12.593,8.927,28.682,7.226c.449-2.2,1.059-4.887,1.5-7.6.094-.574-.46-1.239-.66-1.88-.889-2.846-1.982-5.652-2.581-8.559-.871-4.232.524-5.539,4.7-4.876.372-4.247.7-4.415,4.778-2.648,1.815.786,3.661,1.5,6.1,2.5-.613-2.78-1.2-4.878-1.518-7.016-.59-3.957,1.17-5.568,4.733-3.783,3.281,1.643,4.9.46,6.935-1.887,5.234-6.04,12.575-8.758,19.709-11.648.945-.383,2.523.8,4.1,1.357l1.344-3.5c-4.146-1.539-6.456-4.693-8.434-8.179a6.5,6.5,0,0,1-.556-1.012q-5.617-16.056-11.189-32.126a24.917,24.917,0,0,1-.438-2.853c-1.14-5.255,1.029-8.756,5.722-10.961a4.179,4.179,0,0,0,1.7-1.027c3.076-4.481,7.622-5.717,12.643-5.638,5.76.091,11.614-.142,17.253.8,10.148,1.7,14.726,7.416,15.257,17.739a42.018,42.018,0,0,1-4.031,19.649c-.615,1.357-2.205,2.272-3.758,3.795l3.066-1.032c-3.226,5.5-1.393,10.354.143,15.189a3.292,3.292,0,0,0,1.764,1.832c4.677,1.716,9.507,3.049,14.088,4.979a60.57,60.57,0,0,1,11.206,5.983c5.548,3.881,10.382,8.132,11.325,15.841a270.289,270.289,0,0,1,.224,65.8c-1.048,8.6-5.583,13.548-12.88,15.2-.282.064-.586.236-.841.18-1.678-.366-3.345-.78-5.015-1.179a32,32,0,0,1,2.94-3.567c2.193-2.018,4.7-3.71,6.788-5.822a16.142,16.142,0,0,0,4.455-10.734c1.117-19.079,1.86-38.166-.392-57.214-.439-3.713-1.474-7.358-2.271-11.026-.521-2.4-2.011-2.458-3.528-1.08a19.935,19.935,0,0,0-3.919,4.567c-5.546,9.574-9.443,19.684-8.65,31.006.565,8.075,1.4,16.131,2.182,24.188.257,2.632.36,2.622-1.772,4.124.574.828,1.149,1.656,2.055,2.96-2.045.274-3.695.205-5.123.735-7.762,2.882-15.479,5.889-23.177,8.938a2.4,2.4,0,0,0-1.244,1.7c-.338,4.5-.534,9.009-.805,14.078,2.916-.408,5.428-.825,7.956-1.1,5.457-.593,10.912-1.3,16.388-1.594,3.571-.189,3.661.567,4.262,4.069a45.891,45.891,0,0,0,3.054,10.181,78.17,78.17,0,0,0,5.72,10.69c1.238,1.975,3.135,3.534,4.716,5.3,1.136,1.268,2.241,2.565,3.36,3.849l-.954.984a24.89,24.89,0,0,1-3.251-2.687c-1.474-1.686-2.706-3.676-5.41-2.909s-3.893,2.906-4.865,5.877c4.109-.327,4.3,2.485,4.47,5.27q1.614,26.559,3.172,53.121m-69.815-154.276c1.155-.02,2.31-.027,3.465-.062,7.3-.222,14.6-.418,21.9-.7,2.2-.084,3.2.668,2.989,3-.209,2.3-.24,4.616-.234,6.926q.048,17.91.163,35.82c0,.906.091,1.811.139,2.717l.951.381c.573-.96,1.2-1.893,1.691-2.9a2.636,2.636,0,0,0,.1-1.429c-1.129-8.1,2.819-13.368,9.105-17.883,4.024-2.89,7.462-6.675,10.828-10.364,1.355-1.485,1.814-3.787,2.68-5.717-2.021-.68-4-1.729-6.073-1.958-3.532-.39-7.128-.149-10.681-.4-2.583-.179-3.041-1.1-1.862-3.418a42.053,42.053,0,0,1,3-4.933c4.021-5.775,8.123-11.493,12.135-17.274a30.121,30.121,0,0,0,1.853-3.575l-.566-.644c-2.613.517-5.214,1.115-7.845,1.511-1.07.161-2.857.255-3.163-.281a4.617,4.617,0,0,1,.086-3.429c1.3-3.521,2.83-6.959,4.257-10.434,1.444-3.521.706-6.691-1.6-9.837-2.573,3.063-5,6.027-7.51,8.917a53.588,53.588,0,0,1-5.325,5.679c-2.839,2.437-5.117,2.253-7.972-.188-2.3-1.967-4.6-3.939-6.513-5.58l-7.963,8.667,4.3,5.818a27.671,27.671,0,0,1,2.542-3.148,4.646,4.646,0,0,1,5.62-.713c5.13,2.566,8.272,11.095,5.922,16.355-.3.678-1.131,1.121-1.715,1.672-.394-.6-1.014-1.154-1.143-1.806-.508-2.554-2.146-2.932-4.065-1.94a68.485,68.485,0,0,0-6.546,4.157,18.391,18.391,0,0,0-1.979,1.86,62.816,62.816,0,0,0,1.028-6.705,3.965,3.965,0,0,0-1.11-2.976c-.483-.374-2.059.171-2.826.738-4.737,3.5-8.275,7.757-8.038,14.111a31.757,31.757,0,0,1-1.638-3.11c-1.338-3.365-2.276-6.933-3.968-10.1-1.629-3.054-3.57-2.867-4.778.287a80.305,80.305,0,0,0-2.3,8.1c2.876,1.286,5.487,1.865,7.258,3.409S550.2,2370.213,552.278,2369.607Zm-56.661,80.4q-.107.6-.214,1.2c-1.6,0-3.377.455-4.777-.078-6.632-2.525-13.731-4.442-19.585-8.238-7.52-4.877-16.131-4.622-24.349-7.857.562,5.036,1.148,9.506,1.528,13.993a66.2,66.2,0,0,1,.123,8.08c-.027.721-.742,1.951-1.231,2a2.882,2.882,0,0,1-2.36-1.089,13.187,13.187,0,0,1-1.9-5.065c-.43-5.659-.573-11.342-.7-17.018-.034-1.485-.132-2.433-1.846-3-8.091-2.689-16.126-5.55-24.1-8.321-.9,7.21-1.85,14.842-2.817,22.6,4.406,3.819,10.334,3.114,15.877,4.369l-11-14.939.9-.763a37.983,37.983,0,0,1,2.93,2.471c6.4,6.555,13.014,12.924,19.042,19.806,3.664,4.184,7.6,3.673,11.967,2.4a2.457,2.457,0,0,0,1.51-1.657c.234-4.223.271-8.456.4-12.686a9.809,9.809,0,0,1,.313-1.6l1.186.052c0,4.666.2,9.343-.084,13.991a4.547,4.547,0,0,0,2.435,4.763,13.869,13.869,0,0,0,4.869,1.608c12.244,1.394,24.463.618,36.628-.935a93.646,93.646,0,0,0,12.964-2.793,4.049,4.049,0,0,0,2.342-2.96c.184-6.068.046-12.147-.033-18.222a26.486,26.486,0,0,0-.473-3.246c-.707.541-1.023.744-1.292,1-2.386,2.242-4.723,4.538-7.178,6.7-.466.411-1.388.3-2.1.438a5.786,5.786,0,0,1-.294-2.157,16.842,16.842,0,0,1,1.237-2.829l-4.675-.532c.38-1.681.76-3.361,1.117-4.936l-4.244.191c.958-1.584,2.226-2.814,1.976-3.4-1.852-4.4,1.911-5.431,4.206-7.11a32.738,32.738,0,0,1,5.565-2.794c-.188-2.017-.341-3.667-.495-5.316l5.869.983c-.157.288-.007.13.014-.042q2.113-17.928,4.191-35.86c.231-2.024-.484-3.545-2.688-4.12-5.665-1.475-11.265-3.236-16.982-4.463-5.832-1.252-11.759-2.087-17.669-2.943-3.409-.494-4.258.786-3.919,4.163.585,5.824,1.458,11.723,1.084,17.517-.649,10.069-2.144,20.084-3.321,30.118a20.484,20.484,0,0,1-.732,2.815l-.769-.086a23.855,23.855,0,0,1-.376-3.57c.653-15.793,1.308-31.587,2.092-47.374.115-2.314-.645-3.6-2.838-3.805-8.729-.8-17.467-1.516-26.205-2.224a14.21,14.21,0,0,0-2.445.185c.6,2.027.819,3.815,1.635,5.268,1.144,2.038,2.384,4.311,4.2,5.617,3.652,2.621,7.775,4.577,11.6,6.968a54.5,54.5,0,0,1,4.934,3.894l-.573,1.15c-1.6-.33-3.191-.722-4.8-.976-3.871-.61-7.745-1.552-11.631-1.625-4.69-.089-6.524,1.981-7.062,6.671a13.093,13.093,0,0,0-.134,2.6c.65,7.489,1.313,14.977,2.059,22.456a2.981,2.981,0,0,0,1.142,2.1c8.034,4.18,16.2,7.822,25.648,5.4,3.173-.813,6.357-1.6,9.566-2.253q4.95-1,9.965-1.655c.707-.091,2.045.456,2.149.921a2.812,2.812,0,0,1-.749,2.483,42.9,42.9,0,0,1-6.2,2.858,45.218,45.218,0,0,1-4.483,1.263l-.021.974a25.614,25.614,0,0,0,3.856,1.543c2.721.622,5.521.909,8.231,1.571a18.249,18.249,0,0,1,3.639,1.781c-1.143.713-2.292,1.417-3.423,2.149-.108.07-.107.307-.188.565,1.841.5,3.72.895,5.5,1.553a11.306,11.306,0,0,1,2.456,1.747l-1.85,2.186,1.1,2.231-8.533.865Zm9.324-7,.923.921,10.083-9.479a51.622,51.622,0,0,1,.787,5.424c.123,5.109.166,10.221.164,15.331,0,6.483-.224,6.729-6.508,8.333-.466.119-.941.2-1.414.3a173.231,173.231,0,0,1-42.9,2.674c-4.319-.231-8.5-1.018-10.781-5.121l-8.143,1.5a12.728,12.728,0,0,0,9.031,5c5.927.745,11.864,1.408,17.79,2.15,2.476.311,3.645,1.533,3.426,4.284-.589,7.4-.772,14.834-1.423,22.227-.961,10.914-2.187,21.8-3.335,33.051h70.089c-6.644-23.041-6.583-46.912-10.03-70.306,1.132.874,1.727,2.071,2.691,2.705a35.585,35.585,0,0,0,23.392,5.658c6.287-.608,12.472-2.423,18.659-3.884,9.371-2.212,18.741-4.45,28.031-6.973,2.627-.713,4.974-2.458,7.449-3.729l-.366-.892c-1.023.1-2.044.211-3.068.3-5.374.441-10.747,1.192-16.125,1.232-6.551.048-8.744-1.973-9.927-8.435-.654-3.573-.89-7.223-1.314-10.839l-.8-.329a9.107,9.107,0,0,0-1.092,2.661c-.415,6.446-.582,12.91-1.076,19.349-.42,5.471-1.825,6.958-7.193,7.579a67.025,67.025,0,0,1-32.9-4.456c-6.276-2.5-7.107-6.188-2.934-11.366l-5.428-2.287c0,.965.032,1.633-.005,2.3-.214,3.844-.355,7.695-.736,11.523-.088.886-1.018,1.688-1.56,2.529-.6-.764-1.53-1.45-1.734-2.308a58.036,58.036,0,0,1-1.607-8.8c-1.5-19.205-2.878-38.418-4.279-57.63-.237-3.248-.385-6.5-.575-9.754-1.174,7.368-2.032,14.719-2.861,22.074-.826,7.326-2.559,14.649-.078,22a2.764,2.764,0,0,1,.052,1.713,23.537,23.537,0,0,1-1.411,2.737c-.525-.811-1.441-1.593-1.5-2.437-.175-2.39-.008-4.806.038-7.211.063-3.3-2.082-5.548-5.031-4.89.828,1.338,1.605,2.6,2.57,4.153a64.812,64.812,0,0,0-6.613,3.119,55.8,55.8,0,0,0-5.409,4.231l.646,1.028,8.886-3.643.308.679-9.877,5.74.467.931,10.467-4.064.363.61c-3.395,2.523-8.013,3.782-9.545,8.231l.533.918,9.87-4.549Zm19.882-67.43-.826.19c.15,1.676.278,3.355.453,5.029,1.487,14.178,2.962,28.357,4.525,42.526.094.853.783,2.217,1.4,2.346,7.467,1.556,14.628.081,22.132-2.261-.96-.888-1.566-1.354-2.058-1.919a85.385,85.385,0,0,1-5.733-6.846c-.64-.913-.384-2.454-.536-3.709,1.18.026,2.505-.286,3.512.145a70.2,70.2,0,0,1,6.62,3.528c3.356,1.884,6.59,4.026,10.08,5.607,1.592.722,2.271,1.49,2.43,3.076a44.892,44.892,0,0,0,.984,7.415,4.426,4.426,0,0,0,2.758,2.767,31.8,31.8,0,0,0,7.189.024c.482-.028,1.316-.735,1.326-1.145.1-4.173.06-8.35.06-12.633l-10.364,2.556-.257-.917c.265-.235.492-.579.8-.688,5.121-1.794,5.5-2.06,5.2-7.459-.516-9.125-1.27-18.237-2.008-27.348-.181-2.233-.688-4.44-.961-6.137a48.836,48.836,0,0,1-6.6,2.318c-1.752.357-3.659-.127-5.47.043a6.657,6.657,0,0,0-2.483,1.264c-1.163.715-2.275,2.026-3.43,2.05-.7.015-1.725-1.82-2.116-2.988-1.034-3.085-1.684-6.3-2.758-9.369-.266-.758-1.567-1.152-2.393-1.714a9.787,9.787,0,0,0-1.012,2.9c-.04,2.373.452,4.768.292,7.124-.383,5.652-.992,11.289-1.579,16.925a11.526,11.526,0,0,1-.838,2.468l-.841-.035a12.273,12.273,0,0,1-.815-3.353c.325-7.2.587-14.416,1.286-21.586.347-3.553-.041-4.414-4.14-4.462-.654,2.249-1.3,4.548-1.994,6.83-.677,2.219-2.238,4.085-4.433,3.925-1.635-.12-3.293-1.661-4.678-2.87A21.045,21.045,0,0,1,524.823,2375.579Zm-74.854-84.518c.7,3.714,3.46,5.44,5.878,7.447,1.555,1.292,3.073,2.637,4.534,4.034a15.074,15.074,0,0,1,4.722,12.29,38.1,38.1,0,0,1-6.578,20.073,26.535,26.535,0,0,1-4.206,4.737c-3.236,2.815-6.1,2.661-9.235-.273a39.755,39.755,0,0,0-3.48-3.451,2.8,2.8,0,0,0-2.641-.111c-3,2.9-5.807,5.983-8.928,9.272,1.737,1.113,3.18,2.835,4.547,2.778,6.246-.263,12.486-.908,18.7-1.656,3.057-.369,5.858-1.689,7.112-4.787,3.968-9.81,6.891-19.919,6.579-30.6-.315-10.8-5.774-18.758-14.844-24.313-1.467-.9-3.252-1.277-5.4-2.088.5,1.742.78,2.708,1.059,3.674-4.222-4.9-9.079-3.331-13.317-1.247a18.048,18.048,0,0,0-7.166,6.742,56.341,56.341,0,0,0-4.845,12.3c-3.735,12.383-2.847,25.825-8.994,38.046,5.307-.721,10.183-1.268,15.007-2.112a6.313,6.313,0,0,0,3.838-2.112c2.631-3.794,5.018-7.771,7.3-11.789,6.322-11.118,11.075-22.694,9.895-35.9C449.482,2291.716,449.808,2291.381,449.969,2291.061Zm95.473,120.3-.615.856c1.774,4.748,5.876,7.714,9.8,11.492a48.444,48.444,0,0,1-25.036,3.28l-.191.809,10.957,4.591-.245.83-10.139-1.563q-.179.461-.358.923c2.22,3.724,7.1,3.174,10.114,5.776l-9.336-1.146-.295,1.126,10.387,4.744-.143.4-9.539-1.369-.249.992c2.205,3.367,6.411,3.185,10.511,5.074-3.518.619-6.146,1.3-6.243,4.636-.109,3.755,2.9,4.831,5.575,5.725a88.608,88.608,0,0,0,12.54,3.3c6.742,1.2,13.555,1.848,20.389.437,2.8-.577,4.425-2.032,4.575-5.05.253-5.1.691-10.186.956-15.283.122-2.361.021-4.733.021-7.253-1.308.058-2.358.122-3.41.148-1.155.028-2.313.067-3.467.02-3.676-.149-4.813-.973-5.591-4.568-.445-2.055-.386-4.215-.722-6.3a3.644,3.644,0,0,0-1.132-2.377c-4.545-2.685-9.17-5.237-13.809-7.76C549.031,2412.926,547.213,2412.189,545.442,2411.363Zm42.155-35.618c2.109.137,3.6.267,5.1.324,2.984.113,6.019-.106,8.939.38,1.925.32,4.782,1.259,5.237,2.6.543,1.6-.886,3.98-1.755,5.889a9.858,9.858,0,0,1-2.413,2.857c-3.669,3.406-7.044,7.285-11.175,10-6.842,4.5-7.325,10.857-6.786,18.042l26.834-10.243-2.441-1.091-.228-.767c4.627-.351,3.526-3.039,3.156-5.536-.479-3.241-.821-6.5-1.179-9.761-1.535-13.922-1.148-27.536,6.005-40.189,2.279-4.032,4.243-8.224,8.891-10.115-2.988-4.365-22.815-13.747-28.7-13.469,3.463,4.806,1.785,9.414-.2,14.009-.878,2.034-1.793,4.053-2.619,6.109-.361.9-.54,1.872-.934,3.288,3.334-.662,6.037-1.3,8.775-1.688.949-.134,2.556.058,2.845.622a4.031,4.031,0,0,1-.283,3.15,41.485,41.485,0,0,1-3.256,5.113c-3.6,5.13-7.266,10.21-10.84,15.356C589.551,2372.088,588.767,2373.71,587.6,2375.745Zm-34.367-88.3c.176,2.274.263,4.776.579,7.248a61.59,61.59,0,0,0,9.014,26c3.34,5.176,6.989,6.418,13.051,3.236a47.123,47.123,0,0,0,15.312-13.443c.905-1.18,1.065-4.1.228-5.2-1.657-2.177-1.324-3.932-.646-6.154a70.458,70.458,0,0,0,1.848-8.146c.3-1.652-.179-3.416-2.1-3.4-.868.006-1.967,1.458-2.519,2.49a17.122,17.122,0,0,0-.879,3.631c-.255.953-.636,1.872-1.19,3.464-.867-1.251-1.4-1.876-1.777-2.585-4.627-8.708-7.574-10.145-17.472-8.719C562.323,2286.481,557.938,2286.894,553.23,2287.443Zm10.081,180.439-.077.787c1.427,0,2.859.086,4.278-.013q22.209-1.537,44.409-3.173a2.278,2.278,0,0,0,1.618-1.2c1.306-3.518,3.527-5.881,7.479-6.211-2.043-3.728-4.27-7.141-5.842-10.833a60.057,60.057,0,0,1-4.169-12.825c-.454-2.562-1.214-3.418-3.472-3.174-7.468.8-14.932,1.65-22.379,2.619a2.444,2.444,0,0,0-1.489,1.862,73.061,73.061,0,0,0,1.218,10.6c1.045,4.754,2.446,5.775,7.35,6.184a38.011,38.011,0,0,0,6.348-.011c4.127-.352,8.236-.931,12.362-1.308a22.692,22.692,0,0,1,3.655.238q.182.628.362,1.258c-2.091,1.379-4.016,3.225-6.307,4.044a160.569,160.569,0,0,1-17.115,5.2C582.183,2464.128,572.726,2465.916,563.311,2467.882Zm-119-110.32c-4.23-.71-6.692-3.436-9.3-6.03-.82-.814-2.475-1.853-3.158-1.533-1.761.827-4.415,2.237-4.551,3.625-.712,7.3-3.675,14.443-1.641,21.988a72.323,72.323,0,0,1,1.3,8.832l-5.516.335c.935,3.888,1.928,7.217,2.509,10.617.9,5.3,3.084,10.57.725,15.962l11.021,4.026c0-4.307-.306-8.555.059-12.744.963-11.042,2.19-22.062,3.4-33.081a15.221,15.221,0,0,1,1.356-3.5C437.693,2361.865,437.693,2361.865,444.306,2357.562Zm-8.365-20.893c4.321-3.855,4.569-3.845,8.591.478.065.071.128.144.194.214,3.906,4.155,6.342,4.177,10.35-.009,4.407-4.6,6.679-10.276,8.045-16.38,2.5-11.183-1.447-19.216-12.193-24.377C450.327,2311.633,443.655,2324.326,435.941,2336.669Zm87.97,14.237c-.168,2.04,1.547,4.489-1.971,3.928-2.827-.451-3.653.193-3.062,2.924.78,3.6,2,7.115,3.034,10.665,3.337-8.628,4.538-8.9,16.447-3.774a54.775,54.775,0,0,1,2.262-7.666c.668-1.49,2.142-3.332,3.508-3.571,1.115-.2,3.011,1.492,3.841,2.8a69.644,69.644,0,0,1,3.792,7.911,10.657,10.657,0,0,1,1.131-2.067c2.361-2.622,4.51-5.544,7.265-7.672,2.966-2.29,5.122-.954,5.306,2.769.05,1.011.008,2.026.008,3.15,2.422-1.163,4.506-2.337,6.717-3.182,2.845-1.086,4.232.829,5.2,3.47a12.579,12.579,0,0,0-1.19-11.481c-3.191-5.071-5.935-5.482-10.209-1.406-1.517,1.447-2.466,1.4-3.555-.489a44.637,44.637,0,0,0-3.331-4.479c-2.869,1.228-5.46,2.255-7.961,3.466a2.776,2.776,0,0,0-1.277,1.822c-.439,2.776-1.022,3.076-3.453,1.61-1.045-.63-2.167-1.584-3.262-1.6-3.143-.036-6.291.334-9.58.554a13.31,13.31,0,0,1,.442,1.951c.064,1.1.031,2.209.038,3.314a14.279,14.279,0,0,1-3.54-.254C528.358,2352.9,526.3,2351.905,523.911,2350.906ZM499.9,2442.767l.05-.839-17.72-4.008.173-.788c4.3-.223,8.759,1.581,12.923-.749-2.265-.691-4.54-1.05-6.792-1.522a35.035,35.035,0,0,1-5.849-1.513c-.912-.364-1.5-1.542-2.233-2.351a9.746,9.746,0,0,1,2.423-2.057c1.69-.657,3.592-.77,5.278-1.436a28.022,28.022,0,0,0,4.077-2.423l-.447-1a53.222,53.222,0,0,0-5.327.585c-4.24.882-8.508,1.715-12.658,2.93-7.5,2.2-14.668,1.278-21.711-1.7-2.267-.957-4.5-1.984-7.141-3.15.472,3.561.789,6.714,1.377,9.815a2.984,2.984,0,0,0,1.88,1.745c3.139.911,6.313,1.751,9.523,2.358a42.018,42.018,0,0,1,13.38,5.017c5.543,3.187,11.664,5.384,17.593,7.873a20.166,20.166,0,0,0,4.321.8l.2-.748-9.349-3.18.225-.848,13.664.808.1-.953-11.051-1.78c.042-.365.085-.731.127-1.1C491.234,2441.894,495.629,2445.061,499.9,2442.767Zm3.775-74.428c2.506,1.1,4.83,2.275,7.267,3.117.831.287,2.48.089,2.843-.475,1.713-2.664.153-11.552-2.687-14.289l-3.336,7.03a18.1,18.1,0,0,1,.258-5.042c.565-4.819.061-9.308-4.344-12.372-2.755-1.917-4.19-1.358-4.869,1.912-.377,1.815-.556,3.671-.838,5.6a45.1,45.1,0,0,0-5.206-4.387,5.728,5.728,0,0,1-3.147-5.382c.021-2.024-.281-4.052-.44-6.078l-1.106-.3c-1.5,2.274-2.951,4.579-4.52,6.8a9.29,9.29,0,0,1-1.872,1.556c-.516-.654-1.334-1.246-1.486-1.976a55.267,55.267,0,0,1-.57-5.855c-1.56,2.04-3.382,3.437-3.792,5.168-.82,3.455-2.875,2.968-5.194,2.384a28.7,28.7,0,0,1-2.856-1.033l-.669.434,3.706,7.237c-2.222-1.444-3.984-3.273-5.985-4.787-3.952-2.993-5.239-2.644-7.912,1.909,4.952,1.691,6.846,6.249,8.981,9.738,1.228-1.372,2.266-3.637,3.621-3.845,4.695-.724,5.8,3.591,7.761,6.985.7-2.969,1.2-5.525,1.912-8.02.7-2.444.822-5.2,2.722-7.105l.879.148c.349,2.816.7,5.632,1.125,9.084l4.884-8.851,1.49.5-.876,9.4.891.986,4.17-6.307.782.643v3.465c1.675.485,4.1.627,4.294,1.365.354,1.32-.633,3-.841,3.744,1.692-.4,3.918-1.57,5.829-1.184C506.329,2360.617,505.845,2364.46,503.672,2368.339Zm-83.03,16.879c-6.7.321-6.8.423-6.083,6.367,1.154,9.555,2.627,19.085,1.7,28.776a3.345,3.345,0,0,0,1.356,2.762c7.953,3.3,15.985,6.418,24.554,9.8.178-4.039.414-7.091.377-10.141a3.341,3.341,0,0,0-1.372-2.305c-6.256-4.207-12.8-7.746-20.562-8.242-.259-.017-.495-.4-.841-.7,4.226-1.175,5.255-1.978,4.755-5.262C423.446,2399.193,421.95,2392.171,420.642,2385.218Zm56.949-18.056-.57-.052c-.884-2.592-1.581-5.27-2.713-7.75-.858-1.878-2.608-3.761-4.722-2.694-1.087.549-1.4,3-1.687,4.65a16.835,16.835,0,0,0,.222,3.984l-.837.188a30.542,30.542,0,0,0-2.075-4.583,104.428,104.428,0,0,0-6.71-9.234,3.455,3.455,0,0,0-3.324-.533,4.827,4.827,0,0,0-1.749,3.255c-.191,1.489.738,2.384,2.32,3.123a26.532,26.532,0,0,1,5.912,4.331,2.358,2.358,0,0,1,.184,2.289,2.782,2.782,0,0,1-2.526.437c-1.607-.979-3.583-2.051-4.327-3.606-1.726-3.609-4.365-3.506-7.4-2.67a20.54,20.54,0,0,0-5.12,1.867c-1.03.617-2.42,2.242-2.2,3a3.939,3.939,0,0,0,3.915,3.077c9.705.513,19.4,1.314,29.083,2.111,1.255.1,2.456,1.134,3.692,1.157,3.518.064,7.041-.158,10.561-.3.616-.025,1.425-.006,1.8-.366,2.723-2.576,5.407-5.2,7.988-7.915.7-.738,1.011-1.849,1.808-3.38-2.836.471-5.72,1.954-5.262-2.32l-5.541,4.871-.768-.616,1.7-8.941-.66-.182q-2.151,3.99-4.3,7.981l-1.26-.338q-.56-3.751-1.118-7.5a42.132,42.132,0,0,0-2.609,8.289C478.669,2361.568,478.154,2364.37,477.591,2367.162Zm-72.184,17.887,1.153.334c2.455-2.077,6.17-2.561,7.03-6.718.254-1.23,1.9-2.554,3.211-3.11,3.464-1.465,6.911-5.175,6.412-8.409a68.365,68.365,0,0,0-3.181-12.817c-1.255-3.468-5.973-6.151-8.724-5.571-3.943.831-4.581,4.239-5.42,7.417a8.722,8.722,0,0,0-.243,1.713c-.344,6.142-.8,12.282-.953,18.43A78.472,78.472,0,0,0,405.407,2385.049Zm175.47-103.476a49.626,49.626,0,0,1-1.992-5.212,3.471,3.471,0,0,1,.369-2.63c.279-.376,1.619-.2,2.366.056,2.089.728,4.123,1.618,6.169,2.465,4.137,1.713,6.659,4.8,6.65,9.277-.008,4.7-.6,9.389-.937,14.084-.117,1.642-.223,3.286-.334,4.929l.866.279a7.539,7.539,0,0,0,1.531-1.773c3.023-7.312,4.921-14.8,3.485-22.815-1.149-6.42-4.754-10.637-11-12.477-8.424-2.481-16.985-2.187-25.5-.7-4.069.711-6.016,3.686-5.42,7.318C565.9,2273.159,573.08,2277.474,580.877,2281.573Zm-27.44,103.389c1.118-.842,1.87-1.109,1.974-1.534.795-3.254,3.266-2.625,5.535-2.519,1.059.05,2.12.071,3.18.122,4.18.2,6.958-2.346,7.392-6.539.1-.967.9-1.861,1.378-2.789.439.961,1.29,1.95,1.226,2.876-.114,1.665-1.193,3.306-1.134,4.931.184,5.084.53,10.177,1.147,15.226.992,8.108,2.025,16.2,1.082,25.447,1.772-1.358,3.959-2.217,4.026-3.217.42-6.329.419-12.69.462-19.04.039-5.682-.052-11.365-.073-17.047-.013-3.518,0-7.036,0-11.146l-30.168,1.234C550.858,2375.886,552.078,2380.177,553.437,2384.962Zm-89.906,3.712.394-.7q-3.247-2-6.495-4c-5.532-3.42-12.213-5.706-13.291-13.522a2.227,2.227,0,0,0-.709-1.235,19.486,19.486,0,0,0-1.973-1.393,7.573,7.573,0,0,0-1.159,2.065,51.121,51.121,0,0,0-.754,5.722c-.926,11.7-1.79,23.4-2.726,35.09-.381,4.755,2.113,7.412,6.458,9.1-.092-.97-.173-1.794-.247-2.619-.73-8.129-2.343-16.224-.763-24.432.628-3.261,2.68-5.518,5.993-5.974a19.5,19.5,0,0,1,5.452-.063C457.008,2387.208,460.26,2388,463.531,2388.674Zm119.28-105.918-.455.724c-1.231-.569-2.5-1.065-3.686-1.719-5.322-2.94-10.662-5.982-16.881-6.293a15.368,15.368,0,0,0-7.157,1.466c-2.976,1.435-3.443,4.282-2.118,7.214,1.1,2.442,3.223,1.866,4.973,1.723,4.5-.37,8.973-1.1,13.467-1.592,5.467-.592,9.495,1.757,12.36,6.316.717,1.14,1.409,2.295,2.242,3.654,2.854-8.571,2.854-8.571,7.74-7.227.331-7.179-3.8-9.709-13.933-12.39Zm46.542,57.353-.518.368c.846,5.383,1.978,10.74,2.486,16.156,1.606,17.132.927,34.282.117,51.436-.344,7.28-3.222,12.964-9.1,17.2-1.777,1.281-3.506,2.627-5.256,3.943l.192.755a21.442,21.442,0,0,0,3.769-.031c7.413-1.343,11.651-6.578,12.742-15.77a266.914,266.914,0,0,0,.885-50.534,169.67,169.67,0,0,0-2.735-18.555C631.615,2343.322,630.243,2341.76,629.353,2340.109ZM459.429,2499.9l-.788-.731,7.249-13.852-.648-.409c-3.057,2.282-5.868,5.142-10.4,4.232-1.867,13.216.67,25.926,1.841,38.823,3.815-10.229,7.554-20.257,11.47-30.757Zm68.431-75.018c-1.867-18.089-3.721-36.061-5.575-54.032l-1.349.122c1.364,29.753,2.192,59.548,7.2,89.05a36.191,36.191,0,0,0,1.054-16.211c-.331-2.228-1.944-4.986-1.126-6.515,1.723-3.225-.812-3.453-2.149-4.717a10.2,10.2,0,0,1-1.186-1.873l4.082-.951-4.491-4.641.37-.565Zm92.356,99.249,1.526-.224q-2.091-27.432-4.186-54.863c-.157-2.041-1.383-2.509-3.68-2.087C612.5,2486.427,616.083,2505.307,620.216,2524.127Zm-204.448-73.711c-2.283,6.781-1.514,8.713,5.134,9.663,6.936.991,14,1.067,21.014,1.515.2.013.413-.29,1.105-.81l-17.4-16.235,5.734,8.108-.6.88Zm177.012-139.1c-3.665,3.441-6.643,6.713-10.1,9.352s-7.391,4.634-11.357,7.06c.285,2.283,1.991,4.308,5.315,4.609a34.187,34.187,0,0,0,8.842-.481c4.6-.8,6.385-3.8,5.753-8.455a17.161,17.161,0,0,1,.3-4.541C591.855,2316.522,592.295,2314.205,592.78,2311.311Zm-33.593,29.632c3.321-2.311,6.272-4.686,7.34-8.525-1.466-2.457-3.242-2.478-5.441-1.3-3.138,1.676-6.586,2.854-9.512,4.825-3.67,2.471-6.945,5.529-10.391,8.334q.236.728.473,1.456l6.436.442c.33-3.7-.845-7.351,2.538-8.834C554.13,2335.8,556.383,2339.065,559.187,2340.943Zm-102.914,6.1L435.139,2349l-.447.977c1.425,1.254,2.822,2.541,4.281,3.755,3.939,3.278,6.85,3.554,10.826.286C452.4,2351.887,454.433,2349.067,456.273,2347.046ZM537.819,2371l-14.233-.622c1.891,4.595,3.623,8.5,7.794,10.49a3.115,3.115,0,0,0,2.9-.982C535.584,2377.257,536.495,2374.433,537.819,2371ZM417.4,2348.9c1.4,2.036,3.251,4.132,4.387,6.563s1.554,5.2,2.287,7.82a15.772,15.772,0,0,0,1.426-6.333c-.1-4.5,1.812-7.283,6.185-8.375.1-.025.133-.294.445-1.037-1.4-.5-2.9-1.609-4.164-1.384C424.314,2346.807,420.756,2347.993,417.4,2348.9Zm121.35,17.567c-2.439-1.244-4.875-2.877-7.559-3.769-4.614-1.534-7.643,1.448-6.733,6.494,3.406.16,6.871.176,10.3.536C536.933,2369.959,538.328,2369.543,538.751,2366.47Zm30.974-38.061c-1.742,3.363-1.742,3.362.875,5.586q1.869,1.59,3.732,3.188c4.237,3.647,5.714,3.6,9.613-.463,1.026-1.067,1.914-2.266,3.229-3.838C580.339,2333.939,573.939,2335.547,569.725,2328.409Zm-2,153.582H553.513l-.177.949,15.655,8C568.492,2487.41,568.093,2484.592,567.725,2481.991Zm-90.063-106.785-1.325-.107q-.855,19.713-1.709,39.427l.712.037C477.354,2401.517,478.754,2388.434,477.662,2375.206ZM443.917,2434.1l-1.15.386c.482,6.563.868,13.136,1.523,19.683.138,1.378,1.261,2.658,1.93,3.983.848-.819,1.157-1.372,1.113-1.9-.563-6.788-1.137-13.575-1.841-20.349C445.425,2435.255,444.463,2434.7,443.917,2434.1Zm-29.483-53.941a16.715,16.715,0,0,1,3.811-.724,3.036,3.036,0,0,1,2.33,1.263c1.256,3.2,1.322,3.313,4.937,2-.52-3.765-1.045-7.57-1.525-11.04-2.067,1.537-3.75,3.556-5.834,4.136C415.72,2376.472,414.9,2377.7,414.434,2380.158Zm143.83-38.343c-2.715-1.951-4.533-4.9-7.44-3.147-2.2,1.326-1.8,4.095-.971,6.823Zm16.3,149.967c-1.7-4.764-3.279-9.177-4.855-13.591l-1.169.316c.463,3.472,1.056,6.933,1.345,10.419C570.1,2491.5,571.45,2492.06,574.561,2491.782Zm8.448-73.292-.788-.41c-.568.745-1.582,1.464-1.627,2.239-.217,3.815-.2,7.644-.193,11.468,0,.429.483.858.742,1.287.417-.394,1.171-.766,1.2-1.185C582.63,2427.427,582.8,2422.958,583.009,2418.49Zm-37.894-42.368-1.662-.092-1.362,19.329,1.46.11Q544.333,2385.8,545.115,2376.122Zm-130.94,9,6.669-1.464c-1.38-1.62-2.069-3.21-3.057-3.424C415.845,2379.814,414.093,2382.169,414.175,2385.122Zm133.31-16.04c-2.5-.867-4.276-1.763-6.131-1.983-.715-.084-1.612,1.367-2.625,2.3l5.245,2.115Zm-97.891,163.129c-.041-.371-.083-.742-.124-1.113l-14.782,1.465.15,1.346Zm99.835-248.172,4.543-10.734C548.835,2276.32,548.409,2277.465,549.429,2284.039Zm12.916,247.01c4.809,2,11.406,1.954,12.322,0ZM593.886,2317.4l-1.1-.058c-.145,2.519-.29,5.039-.471,8.179C597.438,2322.626,593.262,2319.894,593.886,2317.4ZM456.935,2530.821c1.618,3,4.706,2.919,9.549.222a7.707,7.707,0,0,0-1.166-.214C462.665,2530.814,460.011,2530.821,456.935,2530.821Zm75.8-182.964,5.752-2.683q-.081-.5-.161-1a22.942,22.942,0,0,0-4.878-.54C533.16,2343.659,533.041,2345.925,532.733,2347.857Zm-72.121,16.771c-.131-3.594-2.262-5.449-6.5-5.86Zm-48.187,90.917.888-.065a37.557,37.557,0,0,0,.7-4.14c.03-.431-.638-.91-.986-1.367-.464.364-1.343.756-1.321,1.089A42.293,42.293,0,0,0,412.425,2455.545Zm31.952-28.614-.808.014c.364,2.016-1.1,4.234,1.444,6.021Z" transform="translate(-403.526 -2265.202)" fill="#606060"/>
</svg>
