<svg xmlns="http://www.w3.org/2000/svg" width="70.983" height="70.984" viewBox="0 0 70.983 70.984">
  <g id="ph-icon3" transform="translate(-7454.965 -2008.291)">
    <circle id="Ellipse_146" data-name="Ellipse 146" cx="35.492" cy="35.492" r="35.492" transform="translate(7454.965 2008.291)" fill="#ff8e2c"/>
    <g id="Group_557" data-name="Group 557">
      <path id="Path_1554" data-name="Path 1554" d="M7473.174,2030.8c0-1.667-.007-3.2,0-4.74.008-1.39.379-1.767,1.757-1.767q15.5,0,31.008,0c1.478,0,1.765.3,1.769,1.8,0,1.534,0,3.067,0,4.7.721,0,1.351-.014,1.981,0,.856.023,1.213.369,1.22,1.232.016,1.829.054,3.661-.01,5.489a3.932,3.932,0,0,1-2.46,3.608,1.085,1.085,0,0,0-.741,1.176q.025,10.456.009,20.913a9.282,9.282,0,0,1-.034,1.043,1.009,1.009,0,0,1-1.091,1c-.174,0-.348,0-.522,0h-31.1c-1.48,0-1.79-.3-1.791-1.772q0-10.589.012-21.175a1.126,1.126,0,0,0-.769-1.231,4.139,4.139,0,0,1-2.445-3.91c-.047-1.654-.03-3.311-.008-4.966.014-1.021.43-1.4,1.449-1.412C7471.96,2030.8,7472.506,2030.8,7473.174,2030.8Zm4.383,9.381a11.494,11.494,0,0,1-1.534.956.9.9,0,0,0-.607.992q.023,10.1,0,20.2c0,.665.22.847.853.836,1.857-.033,3.715-.051,5.571.006.821.025,1.09-.187,1.082-1.051-.042-4.819-.022-9.639-.019-14.458,0-1.458.324-1.783,1.8-1.785q5.791-.008,11.579,0c.174,0,.348.009.522.013a1.146,1.146,0,0,1,1.224,1.271c.009.232,0,.465,0,.7,0,4.79.014,9.58-.014,14.37,0,.722.211.957.937.941,1.914-.044,3.83-.013,5.745-.017.254,0,.507-.036.771-.055a2.263,2.263,0,0,0,.078-.384q.006-10.408,0-20.815a.778.778,0,0,0-.255-.576c-.624-.4-1.284-.738-1.942-1.106-.062.041-.138.083-.206.136a4.368,4.368,0,0,1-5.869.069c-.159-.116-.534-.016-.773.077a14.968,14.968,0,0,1-2.279.938,3.994,3.994,0,0,1-3.682-1.273c-2.22,1.781-4.346,1.8-6.551.026C7481.859,2041.956,7479.71,2042.025,7477.557,2040.185Zm7.63,7.849a2.189,2.189,0,0,0-.082.362c-.006,4.7,0,9.405-.021,14.108,0,.655.358.664.838.663,3.017-.01,6.036-.023,9.053.008.711.008.964-.2.954-.936-.035-2.757-.014-5.515-.014-8.273,0-1.742.019-3.484-.023-5.225-.006-.239-.312-.675-.484-.677C7492.018,2048.024,7488.627,2048.034,7485.187,2048.034Zm20.329-21.51h-30.045v4.216h30.045Zm-29.079,6.467c-1.339,0-2.584-.017-3.826.021a.653.653,0,0,0-.455.451c-.021,1.334-.057,2.675.049,4a2.038,2.038,0,0,0,2.09,1.931,2.114,2.114,0,0,0,2.124-2.016C7476.5,2035.966,7476.437,2034.544,7476.437,2032.991Zm28.028,2.457h.04c0,.492,0,.984,0,1.476a2.167,2.167,0,1,0,4.3.07c.025-.722.006-1.446.006-2.17,0-1.838,0-1.852-1.829-1.832-.8.009-1.844-.2-2.313.221C7504.26,2033.575,7504.507,2034.674,7504.465,2035.448Zm-12.872-.1c0,.695-.05,1.4.012,2.085a2.067,2.067,0,0,0,1.972,1.955,2.032,2.032,0,0,0,2.173-1.712,18.019,18.019,0,0,0,.159-2.68c.021-2,.006-2-2.016-2C7491.545,2032.987,7491.545,2032.987,7491.593,2035.343Zm10.663-2.354c-1.273,0-2.458-.021-3.64.021-.2.007-.555.283-.559.442a39.81,39.81,0,0,0,.036,4.161,2.051,2.051,0,0,0,2.129,1.781,2.005,2.005,0,0,0,2.016-1.882C7502.311,2036.048,7502.256,2034.578,7502.256,2032.989Zm-19.377,2.485h.018a17.393,17.393,0,0,0-.025-1.909.794.794,0,0,0-.526-.549,29.916,29.916,0,0,0-3.125,0,.789.789,0,0,0-.547.538c-.042,1.273-.057,2.55.009,3.821a2.038,2.038,0,0,0,2.079,2.016,2.1,2.1,0,0,0,2.108-2.005C7482.921,2036.752,7482.879,2036.111,7482.879,2035.474Zm6.459-2.43h-4.186c0,1.582-.071,3.112.025,4.63a2.019,2.019,0,0,0,2.081,1.722,2.052,2.052,0,0,0,2.064-1.855C7489.386,2036.072,7489.338,2034.6,7489.338,2033.044Z" fill="#fff"/>
    </g>
  </g>
</svg>
