<svg xmlns="http://www.w3.org/2000/svg" width="70.983" height="70.984" viewBox="0 0 70.983 70.984">
  <g id="ph-icon2" transform="translate(-8243.573 -1903.193)">
    <circle id="Ellipse_147" data-name="Ellipse 147" cx="35.492" cy="35.492" r="35.492" transform="translate(8243.573 1903.193)" fill="#ff8e2c"/>
    <g id="Group_558" data-name="Group 558">
      <path id="Path_1555" data-name="Path 1555" d="M8289.356,1947.619H8268.8c0,1.219,0,2.424,0,3.628,0,1.667-.618,2.287-2.273,2.289-1.784,0-3.568.005-5.353,0-1.436-.005-2.091-.652-2.093-2.089q-.009-6.912.008-13.826a2.883,2.883,0,0,1,.232-1.066c.395-.957.834-1.895,1.309-2.96a2.873,2.873,0,0,1-2.873-1.065,3.743,3.743,0,0,1-.71-2.478c1.509,0,2.989-.029,4.467.015a.885.885,0,0,0,.981-.645q1.334-3.142,2.732-6.259a6.571,6.571,0,0,1,3.2-3.172,2.462,2.462,0,0,1,1.077-.209q9.59-.018,19.18.01a3.206,3.206,0,0,1,1.536.433,6.813,6.813,0,0,1,2.924,3.248c.858,2.027,1.773,4.031,2.635,6.058a.746.746,0,0,0,.825.533c1.5-.028,3.011-.011,4.562-.011a3.649,3.649,0,0,1-.887,2.679,2.818,2.818,0,0,1-2.69.855c.467,1.052.906,1.989,1.295,2.945a3.124,3.124,0,0,1,.244,1.138c.017,4.559.012,9.119.009,13.678,0,1.571-.629,2.187-2.216,2.189-1.809,0-3.618.006-5.426,0a1.837,1.837,0,0,1-2.076-2.045c-.01-1.214-.007-2.428-.012-3.642A1.446,1.446,0,0,0,8289.356,1947.619Zm-24.65-15.973h28.9c-1.183-2.491-2.283-4.952-3.52-7.342a2.615,2.615,0,0,0-2.49-1.448c-5.548.041-11.1.056-16.646-.005a3.09,3.09,0,0,0-3.118,2.018c-.853,1.841-1.716,3.678-2.572,5.518C8265.079,1930.783,8264.909,1931.186,8264.706,1931.646ZM8279.07,1943c1.585,0,3.169.015,4.754-.006a1.5,1.5,0,0,0,1.653-1.443,1.47,1.47,0,0,0-1.584-1.509q-4.789-.041-9.582,0a1.365,1.365,0,0,0-1.437,1.147,1.434,1.434,0,0,0,1.516,1.8C8275.95,1943.017,8277.51,1943,8279.07,1943Zm-11.339-2.6a2.9,2.9,0,1,0-2.911,2.839A2.872,2.872,0,0,0,8267.731,1940.4Zm25.661,2.839a2.864,2.864,0,1,0-.022-5.728,2.864,2.864,0,1,0,.022,5.728Z" fill="#fff"/>
    </g>
  </g>
</svg>
