<svg xmlns="http://www.w3.org/2000/svg" width="70.983" height="70.984" viewBox="0 0 70.983 70.984">
  <g id="ph-icon4" transform="translate(-8243.573 -2008.291)">
    <circle id="Ellipse_148" data-name="Ellipse 148" cx="35.492" cy="35.492" r="35.492" transform="translate(8243.573 2008.291)" fill="#ff8e2c"/>
    <g id="Group_559" data-name="Group 559">
      <path id="Path_1556" data-name="Path 1556" d="M8276.353,2045.992a1.527,1.527,0,0,0,.353,1,3.262,3.262,0,0,0,1.381.8v-3.389a2.222,2.222,0,0,0-1.318.552A1.426,1.426,0,0,0,8276.353,2045.992Z" fill="#fff"/>
      <path id="Path_1557" data-name="Path 1557" d="M8280.446,2055.682q1.781-.276,1.781-1.632a1.572,1.572,0,0,0-.377-1.079,3.507,3.507,0,0,0-1.4-.8Z" fill="#fff"/>
      <path id="Path_1558" data-name="Path 1558" d="M8262.439,2037.28v29.671h34.03V2037.28h-34.03Zm20.63,4.707a10.876,10.876,0,0,1,2.172,1.193l-1.683,2.937a14.414,14.414,0,0,0-1.531-.891,7.773,7.773,0,0,0-1.581-.59v3.791a9.459,9.459,0,0,1,4.153,2.046,4.993,4.993,0,0,1,.9,5.284,4.624,4.624,0,0,1-1.079,1.494,5.477,5.477,0,0,1-1.67,1.042,7.856,7.856,0,0,1-2.184.527v2.486h-2.611v-2.536a12.378,12.378,0,0,1-3.151-.816,12.028,12.028,0,0,1-2.773-1.569l1.959-2.862a15.022,15.022,0,0,0,2,1.293,7.615,7.615,0,0,0,2.1.741v-3.992a16.084,16.084,0,0,1-2.373-.841,6.153,6.153,0,0,1-1.682-1.092,4.087,4.087,0,0,1-1-1.469,5.162,5.162,0,0,1-.339-1.945,4.678,4.678,0,0,1,.377-1.908,4.468,4.468,0,0,1,1.066-1.494,5.314,5.314,0,0,1,1.669-1.03,8.189,8.189,0,0,1,2.159-.514v-1.456h2.611v1.506A10.879,10.879,0,0,1,8283.069,2041.987Z" fill="#fff"/>
      <path id="Path_1559" data-name="Path 1559" d="M8279.454,2014.784l-22.5,22.5h44.214Z" fill="#fff"/>
    </g>
  </g>
</svg>
