<svg xmlns="http://www.w3.org/2000/svg" xmlns:xlink="http://www.w3.org/1999/xlink" width="459.146" height="711.924" viewBox="0 0 459.146 711.924">
  <defs>
    <linearGradient id="linear-gradient" x1="-55.364" y1="0.794" x2="-55.364" y2="-1.341" gradientUnits="objectBoundingBox">
      <stop offset="0" stop-color="#0c56b7"/>
      <stop offset="0.531" stop-color="#0c5cb7"/>
      <stop offset="1" stop-color="#0c0046"/>
    </linearGradient>
  </defs>
  <g id="search-right" transform="translate(-3991.07 -147.938)">
    <g id="Group_264" data-name="Group 264">
      <path id="Path_797" data-name="Path 797" d="M4242.341,148.938l-30.759,43.208,9.883.333V479.562h167.912V192.479l6.362-.333-33.063-43.208Z" fill-rule="evenodd" fill="url(#linear-gradient)"/>
      <g id="Group_263" data-name="Group 263">
        <rect id="Rectangle_352" data-name="Rectangle 352" width="96.01" height="287.416" transform="translate(4221.465 192.146)" fill="none" stroke="#fff" stroke-miterlimit="10" stroke-width="2"/>
        <path id="Path_798" data-name="Path 798" d="M4317.475,148.938h-75.134l-30.759,43.208h105.893Z" fill="none" stroke="#fff" stroke-miterlimit="10" stroke-width="2" fill-rule="evenodd"/>
        <path id="Path_799" data-name="Path 799" d="M4317.475,148.938h45.2l33.063,43.208h-78.264Z" fill="none" stroke="#fff" stroke-miterlimit="10" stroke-width="2" fill-rule="evenodd"/>
        <rect id="Rectangle_353" data-name="Rectangle 353" width="71.902" height="287.416" transform="translate(4317.475 192.146)" fill="none" stroke="#fff" stroke-miterlimit="10" stroke-width="2"/>
        <g id="Group_231" data-name="Group 231">
          <rect id="Rectangle_354" data-name="Rectangle 354" width="96.01" height="6.975" transform="translate(4221.465 271.476)" fill="none" stroke="#fff" stroke-miterlimit="10" stroke-width="2" opacity="0.3" style="mix-blend-mode: multiply;isolation: isolate"/>
          <rect id="Rectangle_355" data-name="Rectangle 355" width="71.902" height="6.975" transform="translate(4317.475 271.476)" fill="none" stroke="#fff" stroke-miterlimit="10" stroke-width="2" opacity="0.3" style="mix-blend-mode: multiply;isolation: isolate"/>
        </g>
        <g id="Group_232" data-name="Group 232">
          <rect id="Rectangle_356" data-name="Rectangle 356" width="96.01" height="14.303" transform="translate(4221.465 192.479)" fill="none" stroke="#fff" stroke-miterlimit="10" stroke-width="2" opacity="0.3" style="mix-blend-mode: multiply;isolation: isolate"/>
          <rect id="Rectangle_357" data-name="Rectangle 357" width="71.902" height="14.303" transform="translate(4317.475 192.479)" fill="none" stroke="#fff" stroke-miterlimit="10" stroke-width="2" opacity="0.3" style="mix-blend-mode: multiply;isolation: isolate"/>
        </g>
        <g id="Group_233" data-name="Group 233">
          <rect id="Rectangle_358" data-name="Rectangle 358" width="51.551" height="61.661" transform="translate(4239.958 418.108)" fill="none" stroke="#fff" stroke-miterlimit="10" stroke-width="2"/>
          <rect id="Rectangle_359" data-name="Rectangle 359" width="4.28" height="61.661" transform="translate(4239.958 418.108)" fill="none" stroke="#fff" stroke-miterlimit="10" stroke-width="0.75"/>
        </g>
        <g id="Group_236" data-name="Group 236">
          <g id="Group_234" data-name="Group 234">
            <rect id="Rectangle_360" data-name="Rectangle 360" width="20.884" height="47.275" transform="translate(4241.264 216.262)" fill="none" stroke="#fff" stroke-miterlimit="10" stroke-width="2"/>
            <rect id="Rectangle_361" data-name="Rectangle 361" width="2.975" height="47.275" transform="translate(4241.264 216.262)" fill="none" stroke="#fff" stroke-miterlimit="10" stroke-width="0.75"/>
          </g>
          <g id="Group_235" data-name="Group 235">
            <rect id="Rectangle_362" data-name="Rectangle 362" width="20.884" height="47.275" transform="translate(4270.79 216.262)" fill="none" stroke="#fff" stroke-miterlimit="10" stroke-width="2"/>
            <rect id="Rectangle_363" data-name="Rectangle 363" width="2.975" height="47.275" transform="translate(4270.79 216.262)" fill="none" stroke="#fff" stroke-miterlimit="10" stroke-width="0.75"/>
          </g>
          <rect id="Rectangle_364" data-name="Rectangle 364" width="23.778" height="3.091" transform="translate(4239.958 261.766)" fill="#fff" opacity="0.4"/>
          <rect id="Rectangle_365" data-name="Rectangle 365" width="23.778" height="3.091" transform="translate(4269.342 261.766)" fill="#fff" opacity="0.4"/>
        </g>
        <g id="Group_239" data-name="Group 239">
          <g id="Group_237" data-name="Group 237">
            <rect id="Rectangle_366" data-name="Rectangle 366" width="20.884" height="47.275" transform="translate(4241.264 285.498)" fill="none" stroke="#fff" stroke-miterlimit="10" stroke-width="2"/>
            <rect id="Rectangle_367" data-name="Rectangle 367" width="2.975" height="47.275" transform="translate(4241.264 285.498)" fill="none" stroke="#fff" stroke-miterlimit="10" stroke-width="0.75"/>
          </g>
          <g id="Group_238" data-name="Group 238">
            <rect id="Rectangle_368" data-name="Rectangle 368" width="20.884" height="47.275" transform="translate(4270.79 285.498)" fill="none" stroke="#fff" stroke-miterlimit="10" stroke-width="2"/>
            <rect id="Rectangle_369" data-name="Rectangle 369" width="2.975" height="47.275" transform="translate(4270.79 285.498)" fill="none" stroke="#fff" stroke-miterlimit="10" stroke-width="0.75"/>
          </g>
          <rect id="Rectangle_370" data-name="Rectangle 370" width="23.778" height="3.091" transform="translate(4239.958 331.002)" fill="#fff" opacity="0.4"/>
          <rect id="Rectangle_371" data-name="Rectangle 371" width="23.778" height="3.091" transform="translate(4269.342 331.002)" fill="#fff" opacity="0.4"/>
        </g>
        <g id="Group_240" data-name="Group 240">
          <rect id="Rectangle_372" data-name="Rectangle 372" width="96.01" height="6.975" transform="translate(4221.465 340.592)" fill="none" stroke="#fff" stroke-miterlimit="10" stroke-width="2" opacity="0.3" style="mix-blend-mode: multiply;isolation: isolate"/>
          <rect id="Rectangle_373" data-name="Rectangle 373" width="71.902" height="6.975" transform="translate(4317.475 340.592)" fill="none" stroke="#fff" stroke-miterlimit="10" stroke-width="2" opacity="0.3" style="mix-blend-mode: multiply;isolation: isolate"/>
        </g>
        <g id="Group_241" data-name="Group 241">
          <rect id="Rectangle_374" data-name="Rectangle 374" width="96.01" height="6.975" transform="translate(4221.465 405.786)" fill="none" stroke="#fff" stroke-miterlimit="10" stroke-width="2" opacity="0.3" style="mix-blend-mode: multiply;isolation: isolate"/>
          <rect id="Rectangle_375" data-name="Rectangle 375" width="71.902" height="6.975" transform="translate(4317.475 405.786)" fill="none" stroke="#fff" stroke-miterlimit="10" stroke-width="2" opacity="0.3" style="mix-blend-mode: multiply;isolation: isolate"/>
        </g>
        <g id="Group_245" data-name="Group 245">
          <g id="Group_242" data-name="Group 242">
            <path id="Path_800" data-name="Path 800" d="M4317.475,233.122H4312.8a.981.981,0,0,0-.98.98v3.947a.981.981,0,0,0,.98.98h4.675v-5.907Z" fill="#fff" fill-rule="evenodd" opacity="0.4"/>
            <path id="Path_801" data-name="Path 801" d="M4317.475,226.261h-9.9a1.022,1.022,0,0,0-1.022,1.021v3.864a1.019,1.019,0,0,0,1.022,1.021h9.9v-5.906Z" fill="#fff" fill-rule="evenodd" opacity="0.4"/>
            <path id="Path_802" data-name="Path 802" d="M4317.475,216.481H4312.8a.981.981,0,0,0-.98.98v3.947a.981.981,0,0,0,.98.98h4.675v-5.907Z" fill="#fff" fill-rule="evenodd" opacity="0.4"/>
            <path id="Path_803" data-name="Path 803" d="M4317.475,209.62h-9.9a1.022,1.022,0,0,0-1.022,1.023v3.862a1.034,1.034,0,0,0,.3.723,1.023,1.023,0,0,0,.723.3h9.9V209.62Z" fill="#fff" fill-rule="evenodd" opacity="0.4"/>
            <path id="Path_804" data-name="Path 804" d="M4317.475,260.467h-9.9a1.024,1.024,0,0,0-1.022,1.022v3.863a1.021,1.021,0,0,0,1.022,1.022h9.9v-5.907Z" fill="#fff" fill-rule="evenodd" opacity="0.4"/>
            <path id="Path_805" data-name="Path 805" d="M4317.475,250.688H4312.8a.98.98,0,0,0-.98.98v3.947a.98.98,0,0,0,.98.979h4.675v-5.906Z" fill="#fff" fill-rule="evenodd" opacity="0.4"/>
            <path id="Path_806" data-name="Path 806" d="M4317.475,243.826h-9.9a1.024,1.024,0,0,0-1.022,1.022v3.863a1.021,1.021,0,0,0,1.022,1.022h9.9v-5.907Z" fill="#fff" fill-rule="evenodd" opacity="0.4"/>
          </g>
          <g id="Group_243" data-name="Group 243">
            <path id="Path_807" data-name="Path 807" d="M4317.475,302.9H4312.8a.98.98,0,0,0-.98.979v3.948a.98.98,0,0,0,.98.979h4.675V302.9Z" fill="#fff" fill-rule="evenodd" opacity="0.4"/>
            <path id="Path_808" data-name="Path 808" d="M4317.475,296.035h-9.9a1.024,1.024,0,0,0-1.022,1.022v3.863a1.021,1.021,0,0,0,1.022,1.022h9.9v-5.907Z" fill="#fff" fill-rule="evenodd" opacity="0.4"/>
            <path id="Path_809" data-name="Path 809" d="M4317.475,286.256H4312.8a.98.98,0,0,0-.98.979v3.948a.98.98,0,0,0,.98.979h4.675v-5.906Z" fill="#fff" fill-rule="evenodd" opacity="0.4"/>
            <path id="Path_810" data-name="Path 810" d="M4317.475,330.242h-9.9a1.022,1.022,0,0,0-1.022,1.021v3.864a1.019,1.019,0,0,0,1.022,1.021h9.9v-5.906Z" fill="#fff" fill-rule="evenodd" opacity="0.4"/>
            <path id="Path_811" data-name="Path 811" d="M4317.475,320.462H4312.8a.981.981,0,0,0-.98.98v3.947a.981.981,0,0,0,.98.98h4.675v-5.907Z" fill="#fff" fill-rule="evenodd" opacity="0.4"/>
            <path id="Path_812" data-name="Path 812" d="M4317.475,313.6h-9.9a1.022,1.022,0,0,0-1.022,1.021v3.864a1.019,1.019,0,0,0,1.022,1.021h9.9V313.6Z" fill="#fff" fill-rule="evenodd" opacity="0.4"/>
          </g>
          <g id="Group_244" data-name="Group 244">
            <path id="Path_813" data-name="Path 813" d="M4317.475,370.11H4312.8a.98.98,0,0,0-.98.98v3.947a.98.98,0,0,0,.98.979h4.675V370.11Z" fill="#fff" fill-rule="evenodd" opacity="0.4"/>
            <path id="Path_814" data-name="Path 814" d="M4317.475,363.248h-9.9a1.024,1.024,0,0,0-1.022,1.022v3.863a1.021,1.021,0,0,0,1.022,1.022h9.9v-5.907Z" fill="#fff" fill-rule="evenodd" opacity="0.4"/>
            <path id="Path_815" data-name="Path 815" d="M4317.475,353.469H4312.8a.98.98,0,0,0-.98.979V358.4a.98.98,0,0,0,.98.979h4.675v-5.906Z" fill="#fff" fill-rule="evenodd" opacity="0.4"/>
            <path id="Path_816" data-name="Path 816" d="M4317.475,397.455h-9.9a1.022,1.022,0,0,0-1.022,1.021v3.864a1.019,1.019,0,0,0,1.022,1.021h9.9v-5.906Z" fill="#fff" fill-rule="evenodd" opacity="0.4"/>
            <path id="Path_817" data-name="Path 817" d="M4317.475,387.675H4312.8a.981.981,0,0,0-.98.98V392.6a.98.98,0,0,0,.98.98h4.675v-5.907Z" fill="#fff" fill-rule="evenodd" opacity="0.4"/>
            <path id="Path_818" data-name="Path 818" d="M4317.475,380.814h-9.9a1.024,1.024,0,0,0-1.022,1.021V385.7a1.021,1.021,0,0,0,1.022,1.022h9.9v-5.907Z" fill="#fff" fill-rule="evenodd" opacity="0.4"/>
          </g>
        </g>
        <g id="Group_249" data-name="Group 249">
          <g id="Group_246" data-name="Group 246">
            <path id="Path_819" data-name="Path 819" d="M4221.465,379.218h4.676a.981.981,0,0,0,.98-.979v-3.948a.981.981,0,0,0-.98-.979h-4.676v5.906Z" fill="#fff" fill-rule="evenodd" opacity="0.4"/>
            <path id="Path_820" data-name="Path 820" d="M4221.465,386.08h9.9a1.024,1.024,0,0,0,1.022-1.022V381.2a1.021,1.021,0,0,0-1.022-1.022h-9.9v5.907Z" fill="#fff" fill-rule="evenodd" opacity="0.4"/>
            <path id="Path_821" data-name="Path 821" d="M4221.465,395.859h4.676a.981.981,0,0,0,.98-.979v-3.947a.981.981,0,0,0-.98-.98h-4.676v5.906Z" fill="#fff" fill-rule="evenodd" opacity="0.4"/>
            <path id="Path_822" data-name="Path 822" d="M4221.465,402.721h9.9a1.024,1.024,0,0,0,1.022-1.024v-3.861a1.021,1.021,0,0,0-1.022-1.022h-9.9v5.907Z" fill="#fff" fill-rule="evenodd" opacity="0.4"/>
            <path id="Path_823" data-name="Path 823" d="M4221.465,351.873h9.9a1.022,1.022,0,0,0,1.022-1.021v-3.864a1.019,1.019,0,0,0-1.022-1.021h-9.9v5.906Z" fill="#fff" fill-rule="evenodd" opacity="0.4"/>
            <path id="Path_824" data-name="Path 824" d="M4221.465,361.653h4.676a.982.982,0,0,0,.98-.98v-3.947a.982.982,0,0,0-.98-.98h-4.676v5.907Z" fill="#fff" fill-rule="evenodd" opacity="0.4"/>
            <path id="Path_825" data-name="Path 825" d="M4221.465,368.514h9.9a1.022,1.022,0,0,0,1.022-1.021v-3.864a1.019,1.019,0,0,0-1.022-1.021h-9.9v5.906Z" fill="#fff" fill-rule="evenodd" opacity="0.4"/>
          </g>
          <g id="Group_247" data-name="Group 247">
            <path id="Path_826" data-name="Path 826" d="M4221.465,309.444h4.676a.982.982,0,0,0,.98-.98v-3.947a.982.982,0,0,0-.98-.98h-4.676v5.907Z" fill="#fff" fill-rule="evenodd" opacity="0.4"/>
            <path id="Path_827" data-name="Path 827" d="M4221.465,316.3h9.9a1.022,1.022,0,0,0,1.022-1.021V311.42a1.019,1.019,0,0,0-1.022-1.021h-9.9V316.3Z" fill="#fff" fill-rule="evenodd" opacity="0.4"/>
            <path id="Path_828" data-name="Path 828" d="M4221.465,326.085h4.676a.982.982,0,0,0,.98-.98v-3.947a.982.982,0,0,0-.98-.98h-4.676v5.907Z" fill="#fff" fill-rule="evenodd" opacity="0.4"/>
            <path id="Path_829" data-name="Path 829" d="M4221.465,291.878h4.676a.981.981,0,0,0,.98-.979v-3.948a.981.981,0,0,0-.98-.979h-4.676v5.906Z" fill="#fff" fill-rule="evenodd" opacity="0.4"/>
            <path id="Path_830" data-name="Path 830" d="M4221.465,298.74h9.9a1.024,1.024,0,0,0,1.022-1.022v-3.863a1.021,1.021,0,0,0-1.022-1.022h-9.9v5.907Z" fill="#fff" fill-rule="evenodd" opacity="0.4"/>
          </g>
          <g id="Group_248" data-name="Group 248">
            <path id="Path_831" data-name="Path 831" d="M4221.465,242.231h4.676a.982.982,0,0,0,.98-.98V237.3a.981.981,0,0,0-.98-.98h-4.676v5.907Z" fill="#fff" fill-rule="evenodd" opacity="0.4"/>
            <path id="Path_832" data-name="Path 832" d="M4221.465,249.092h9.9a1.022,1.022,0,0,0,1.022-1.021v-3.864a1.019,1.019,0,0,0-1.022-1.021h-9.9v5.906Z" fill="#fff" fill-rule="evenodd" opacity="0.4"/>
            <path id="Path_833" data-name="Path 833" d="M4221.465,258.872h4.676a.982.982,0,0,0,.98-.98v-3.947a.982.982,0,0,0-.98-.98h-4.676v5.907Z" fill="#fff" fill-rule="evenodd" opacity="0.4"/>
            <path id="Path_834" data-name="Path 834" d="M4221.465,214.886h9.9a1.024,1.024,0,0,0,1.022-1.022V210a1.021,1.021,0,0,0-1.022-1.022h-9.9v5.907Z" fill="#fff" fill-rule="evenodd" opacity="0.4"/>
            <path id="Path_835" data-name="Path 835" d="M4221.465,224.665h4.676a.981.981,0,0,0,.98-.98v-3.947a.982.982,0,0,0-.98-.98h-4.676v5.907Z" fill="#fff" fill-rule="evenodd" opacity="0.4"/>
            <path id="Path_836" data-name="Path 836" d="M4221.465,231.527h9.9a1.024,1.024,0,0,0,1.022-1.022v-3.863a1.021,1.021,0,0,0-1.022-1.022h-9.9v5.907Z" fill="#fff" fill-rule="evenodd" opacity="0.4"/>
          </g>
        </g>
        <g id="Group_252" data-name="Group 252">
          <g id="Group_250" data-name="Group 250">
            <rect id="Rectangle_376" data-name="Rectangle 376" width="20.884" height="47.275" transform="translate(4241.264 354.614)" fill="none" stroke="#fff" stroke-miterlimit="10" stroke-width="2"/>
            <rect id="Rectangle_377" data-name="Rectangle 377" width="2.975" height="47.275" transform="translate(4241.264 354.614)" fill="none" stroke="#fff" stroke-miterlimit="10" stroke-width="0.75"/>
          </g>
          <g id="Group_251" data-name="Group 251">
            <rect id="Rectangle_378" data-name="Rectangle 378" width="20.884" height="47.275" transform="translate(4270.79 354.614)" fill="none" stroke="#fff" stroke-miterlimit="10" stroke-width="2"/>
            <rect id="Rectangle_379" data-name="Rectangle 379" width="2.975" height="47.275" transform="translate(4270.79 354.614)" fill="none" stroke="#fff" stroke-miterlimit="10" stroke-width="0.75"/>
          </g>
          <rect id="Rectangle_380" data-name="Rectangle 380" width="23.778" height="3.091" transform="translate(4239.958 400.118)" fill="#fff" opacity="0.4"/>
          <rect id="Rectangle_381" data-name="Rectangle 381" width="23.778" height="3.091" transform="translate(4269.342 400.118)" fill="#fff" opacity="0.4"/>
        </g>
        <g id="Group_255" data-name="Group 255">
          <g id="Group_253" data-name="Group 253">
            <rect id="Rectangle_382" data-name="Rectangle 382" width="20.884" height="47.275" transform="translate(4378.702 263.537) rotate(180)" fill="none" stroke="#fff" stroke-miterlimit="10" stroke-width="2"/>
            <rect id="Rectangle_383" data-name="Rectangle 383" width="2.975" height="47.275" transform="translate(4378.702 263.537) rotate(-180)" fill="none" stroke="#fff" stroke-miterlimit="10" stroke-width="0.75"/>
          </g>
          <g id="Group_254" data-name="Group 254">
            <rect id="Rectangle_384" data-name="Rectangle 384" width="20.884" height="47.275" transform="translate(4349.176 263.537) rotate(180)" fill="none" stroke="#fff" stroke-miterlimit="10" stroke-width="2"/>
            <rect id="Rectangle_385" data-name="Rectangle 385" width="2.975" height="47.275" transform="translate(4349.176 263.537) rotate(180)" fill="none" stroke="#fff" stroke-miterlimit="10" stroke-width="0.75"/>
          </g>
          <rect id="Rectangle_386" data-name="Rectangle 386" width="23.778" height="3.091" transform="translate(4380.008 264.857) rotate(180)" fill="#fff" opacity="0.4"/>
          <rect id="Rectangle_387" data-name="Rectangle 387" width="23.778" height="3.091" transform="translate(4350.624 264.857) rotate(-180)" fill="#fff" opacity="0.4"/>
        </g>
        <g id="Group_258" data-name="Group 258">
          <g id="Group_256" data-name="Group 256">
            <rect id="Rectangle_388" data-name="Rectangle 388" width="20.884" height="47.275" transform="translate(4378.702 332.773) rotate(180)" fill="none" stroke="#fff" stroke-miterlimit="10" stroke-width="2"/>
            <rect id="Rectangle_389" data-name="Rectangle 389" width="2.975" height="47.275" transform="translate(4378.702 332.773) rotate(-180)" fill="none" stroke="#fff" stroke-miterlimit="10" stroke-width="0.75"/>
          </g>
          <g id="Group_257" data-name="Group 257">
            <rect id="Rectangle_390" data-name="Rectangle 390" width="20.884" height="47.275" transform="translate(4349.176 332.773) rotate(-180)" fill="none" stroke="#fff" stroke-miterlimit="10" stroke-width="2"/>
            <rect id="Rectangle_391" data-name="Rectangle 391" width="2.975" height="47.275" transform="translate(4349.176 332.773) rotate(180)" fill="none" stroke="#fff" stroke-miterlimit="10" stroke-width="0.75"/>
          </g>
          <rect id="Rectangle_392" data-name="Rectangle 392" width="23.778" height="3.091" transform="translate(4380.008 334.093) rotate(180)" fill="#fff" opacity="0.4"/>
          <rect id="Rectangle_393" data-name="Rectangle 393" width="23.778" height="3.091" transform="translate(4350.624 334.093) rotate(-180)" fill="#fff" opacity="0.4"/>
        </g>
        <g id="Group_261" data-name="Group 261">
          <g id="Group_259" data-name="Group 259">
            <rect id="Rectangle_394" data-name="Rectangle 394" width="20.884" height="47.275" transform="translate(4378.702 401.889) rotate(-180)" fill="none" stroke="#fff" stroke-miterlimit="10" stroke-width="2"/>
            <rect id="Rectangle_395" data-name="Rectangle 395" width="2.975" height="47.275" transform="translate(4378.702 401.889) rotate(-180)" fill="none" stroke="#fff" stroke-miterlimit="10" stroke-width="0.75"/>
          </g>
          <g id="Group_260" data-name="Group 260">
            <rect id="Rectangle_396" data-name="Rectangle 396" width="20.884" height="47.275" transform="translate(4349.176 401.889) rotate(180)" fill="none" stroke="#fff" stroke-miterlimit="10" stroke-width="2"/>
            <rect id="Rectangle_397" data-name="Rectangle 397" width="2.975" height="47.275" transform="translate(4349.176 401.889) rotate(180)" fill="none" stroke="#fff" stroke-miterlimit="10" stroke-width="0.75"/>
          </g>
          <rect id="Rectangle_398" data-name="Rectangle 398" width="23.778" height="3.091" transform="translate(4380.008 403.209) rotate(180)" fill="#fff" opacity="0.4"/>
          <rect id="Rectangle_399" data-name="Rectangle 399" width="23.778" height="3.091" transform="translate(4350.624 403.209) rotate(180)" fill="#fff" opacity="0.4"/>
        </g>
        <path id="Path_837" data-name="Path 837" d="M4285.137,479.77h-35.192V438.235a17.6,17.6,0,0,1,17.6-17.6h0a17.6,17.6,0,0,1,17.6,17.6Z" fill="none" stroke="#fff" stroke-miterlimit="10" stroke-width="2" fill-rule="evenodd"/>
        <g id="Group_262" data-name="Group 262" opacity="0.3">
          <path id="Path_838" data-name="Path 838" d="M4224.3,174.257V192.48h-6.373v-9.264Z" fill="none" stroke="#fff" stroke-miterlimit="10" stroke-width="2" fill-rule="evenodd"/>
          <path id="Path_839" data-name="Path 839" d="M4238.741,153.979v38.5h-6.354V162.919Z" fill="none" stroke="#fff" stroke-miterlimit="10" stroke-width="2" fill-rule="evenodd"/>
          <rect id="Rectangle_400" data-name="Rectangle 400" width="6.353" height="43.543" transform="translate(4246.825 148.938)" fill="none" stroke="#fff" stroke-miterlimit="10" stroke-width="2"/>
          <rect id="Rectangle_401" data-name="Rectangle 401" width="6.373" height="43.543" transform="translate(4261.263 148.938)" fill="none" stroke="#fff" stroke-miterlimit="10" stroke-width="2"/>
          <rect id="Rectangle_402" data-name="Rectangle 402" width="6.354" height="43.543" transform="translate(4275.721 148.938)" fill="none" stroke="#fff" stroke-miterlimit="10" stroke-width="2"/>
          <rect id="Rectangle_403" data-name="Rectangle 403" width="6.354" height="43.543" transform="translate(4290.159 148.938)" fill="none" stroke="#fff" stroke-miterlimit="10" stroke-width="2"/>
          <rect id="Rectangle_404" data-name="Rectangle 404" width="6.373" height="43.543" transform="translate(4304.597 148.938)" fill="none" stroke="#fff" stroke-miterlimit="10" stroke-width="2"/>
        </g>
      </g>
    </g>
    <g id="Group_277" data-name="Group 277">
      <rect id="Rectangle_405" data-name="Rectangle 405" width="83.047" height="114.245" transform="translate(4133.214 685.871) rotate(-180)" fill="#0c56b7"/>
      <g id="Group_265" data-name="Group 265">
        <rect id="Rectangle_406" data-name="Rectangle 406" width="19.82" height="5.18" transform="translate(4170.315 406.601) rotate(-180)" fill="#0c56b7"/>
        <path id="Path_840" data-name="Path 840" d="M4443.674,353.012v29.125h-4.444l-11.242,7.122v18.22h0v5.18h-2.064L4232.66,416.11l-43.434,1.279-34.013-4.73h0v-5.18l1.69.482,1.01-18.7-1.178-13.957-4.545-17.172-1.694-5.4Z" fill="#0c56b7"/>
        <path id="Path_841" data-name="Path 841" d="M4427.988,526.906l9.412,1.087v5.232H4150.5v-6.319h4.717l.5-136.956-10.855-7.814-.382-30.3,283.517,43.529.7,4.378h0V522.855" fill="#0c56b7"/>
        <path id="Path_842" data-name="Path 842" d="M4155.213,389.259h206.44l10.359-7.122H4144.854Z" fill="none" stroke="#fff" stroke-miterlimit="10" stroke-width="2"/>
        <path id="Path_843" data-name="Path 843" d="M4155.213,406.862V526.906h206.44V406.862" fill="none" stroke="#fff" stroke-miterlimit="10" stroke-width="2"/>
        <path id="Path_844" data-name="Path 844" d="M4155.213,533.225v95.34h206.44V508.521" fill="none" stroke="#fff" stroke-miterlimit="10" stroke-width="2"/>
        <path id="Path_845" data-name="Path 845" d="M4361.653,401.421V389.258h-206.44v12.163" fill="none" stroke="#fff" stroke-miterlimit="10" stroke-width="2"/>
        <rect id="Rectangle_407" data-name="Rectangle 407" width="58.625" height="110.796" transform="translate(4352.12 526.906) rotate(-180)" fill="none" stroke="#fff" stroke-miterlimit="10" stroke-width="2" style="mix-blend-mode: multiply;isolation: isolate"/>
        <rect id="Rectangle_408" data-name="Rectangle 408" width="52.165" height="106.55" transform="translate(4348.89 526.906) rotate(-180)" fill="none" stroke="#fff" stroke-miterlimit="10" stroke-width="2"/>
        <rect id="Rectangle_409" data-name="Rectangle 409" width="99.891" height="45.506" transform="translate(4345.56 423.686) rotate(90)" fill="none" stroke="#fff" stroke-miterlimit="10" stroke-width="2"/>
        <rect id="Rectangle_410" data-name="Rectangle 410" width="99.891" height="45.506" transform="translate(4345.56 423.686) rotate(90)" fill="none" stroke="#fff" stroke-miterlimit="10" stroke-width="2" style="mix-blend-mode: screen;isolation: isolate"/>
        <path id="Path_846" data-name="Path 846" d="M4345.56,423.686" fill="none" stroke="#fff" stroke-miterlimit="10" stroke-width="2" style="mix-blend-mode: screen;isolation: isolate"/>
        <line id="Line_167" data-name="Line 167" x1="28.436" y1="52.165" transform="translate(4310.647 423.686)" fill="none" stroke="#fff" stroke-miterlimit="10" stroke-width="1" style="mix-blend-mode: screen;isolation: isolate"/>
        <path id="Path_847" data-name="Path 847" d="M4332.166,475.851h-8.124l-23.988-43.58v-8.586h3.668Z" fill="none" stroke="#fff" stroke-miterlimit="10" stroke-width="1" style="mix-blend-mode: screen;isolation: isolate"/>
        <rect id="Rectangle_411" data-name="Rectangle 411" width="215.875" height="5.18" transform="translate(4366.371 406.601) rotate(-180)" fill="none" stroke="#fff" stroke-miterlimit="10" stroke-width="2"/>
        <rect id="Rectangle_412" data-name="Rectangle 412" width="227.159" height="29.125" transform="translate(4372.013 382.137) rotate(-180)" fill="none" stroke="#fff" stroke-miterlimit="10" stroke-width="2"/>
        <rect id="Rectangle_413" data-name="Rectangle 413" width="123.754" height="74.718" transform="translate(4284.146 495.074) rotate(-180)" fill="none" stroke="#fff" stroke-miterlimit="10" stroke-width="2"/>
        <rect id="Rectangle_414" data-name="Rectangle 414" width="68.059" height="117.094" transform="translate(4280.816 423.686) rotate(90)" fill="none" stroke="#fff" stroke-miterlimit="10" stroke-width="2"/>
        <rect id="Rectangle_415" data-name="Rectangle 415" width="132.818" height="6.304" transform="translate(4288.678 501.379) rotate(-180)" fill="none" stroke="#fff" stroke-miterlimit="10" stroke-width="2"/>
        <rect id="Rectangle_416" data-name="Rectangle 416" width="45.506" height="47.726" transform="translate(4345.56 523.576) rotate(-180)" fill="none" stroke="#fff" stroke-miterlimit="10" stroke-width="2"/>
        <rect id="Rectangle_417" data-name="Rectangle 417" width="68.059" height="117.094" transform="translate(4280.816 423.686) rotate(90)" fill="none" stroke="#fff" stroke-miterlimit="10" stroke-width="2" style="mix-blend-mode: screen;isolation: isolate"/>
        <rect id="Rectangle_418" data-name="Rectangle 418" width="215.875" height="6.319" transform="translate(4366.371 533.225) rotate(-180)" fill="none" stroke="#fff" stroke-miterlimit="10" stroke-width="2"/>
        <path id="Path_848" data-name="Path 848" d="M4372.013,353.012h71.662v29.125h-71.662" fill="none" stroke="#fff" stroke-miterlimit="10" stroke-width="2"/>
        <path id="Path_849" data-name="Path 849" d="M4439.23,382.137l-11.242,7.122h-66.335" fill="none" stroke="#fff" stroke-miterlimit="10" stroke-width="2"/>
        <line id="Line_168" data-name="Line 168" y2="29.356" transform="translate(4427.988 389.259)" fill="none" stroke="#fff" stroke-miterlimit="10" stroke-width="2"/>
        <path id="Path_850" data-name="Path 850" d="M4427.988,412.659V526.906h-61.618" fill="none" stroke="#fff" stroke-miterlimit="10" stroke-width="2"/>
        <path id="Path_851" data-name="Path 851" d="M4427.988,526.906h9.412v6.319h-72.156" fill="none" stroke="#fff" stroke-miterlimit="10" stroke-width="2"/>
      </g>
      <g id="Group_269" data-name="Group 269">
        <path id="Path_852" data-name="Path 852" d="M4449.216,493.319v54.727h-10.084V688.368h10.084V703.2H4124.09V688.685h7.5V548.045h-12.8V493.319Z" fill="#0c56b7"/>
        <line id="Line_169" data-name="Line 169" y1="140.64" transform="translate(4377.858 548.045)" fill="none" stroke="#fff" stroke-miterlimit="10" stroke-width="2"/>
        <line id="Line_170" data-name="Line 170" y2="140.64" transform="translate(4131.589 548.045)" fill="none" stroke="#fff" stroke-miterlimit="10" stroke-width="2"/>
        <rect id="Rectangle_419" data-name="Rectangle 419" width="124.271" height="150.623" transform="translate(4370.484 558.676) rotate(90)" fill="none" stroke="#fff" stroke-miterlimit="10" stroke-width="2"/>
        <rect id="Rectangle_420" data-name="Rectangle 420" width="142.678" height="116.326" transform="translate(4366.512 678.975) rotate(-180)" fill="none" stroke="#fff" stroke-miterlimit="10" stroke-width="2"/>
        <rect id="Rectangle_421" data-name="Rectangle 421" width="255.531" height="14.516" transform="translate(4382.489 703.201) rotate(-180)" fill="none" stroke="#fff" stroke-miterlimit="10" stroke-width="2"/>
        <g id="Group_266" data-name="Group 266">
          <rect id="Rectangle_422" data-name="Rectangle 422" width="62.229" height="129.275" transform="translate(4149.022 559.41)" fill="none" stroke="#fff" stroke-miterlimit="10" stroke-width="2"/>
          <rect id="Rectangle_423" data-name="Rectangle 423" width="121.331" height="54.285" transform="translate(4207.279 563.382) rotate(90)" fill="none" stroke="#fff" stroke-miterlimit="10" stroke-width="2"/>
        </g>
        <rect id="Rectangle_424" data-name="Rectangle 424" width="271.861" height="54.727" transform="translate(4390.654 548.045) rotate(-180)" fill="none" stroke="#fff" stroke-miterlimit="10" stroke-width="2"/>
        <rect id="Rectangle_425" data-name="Rectangle 425" width="44.135" height="261.268" transform="translate(4385.358 498.614) rotate(90)" fill="none" stroke="#fff" stroke-miterlimit="10" stroke-width="2"/>
        <rect id="Rectangle_426" data-name="Rectangle 426" width="26.791" height="9.71" transform="translate(4193.448 596.014) rotate(-180)" fill="#7a7a7a" style="mix-blend-mode: screen;isolation: isolate"/>
        <g id="Group_268" data-name="Group 268">
          <g id="Group_267" data-name="Group 267">
            <path id="Path_853" data-name="Path 853" d="M4275.055,590.033c0-14.859-22.044-14.859-22.044,0C4253.011,604.923,4275.055,604.923,4275.055,590.033Zm-16.394,0a5.4,5.4,0,1,1,10.775,0C4269.436,597.831,4258.661,597.831,4258.661,590.033Z" fill="none" stroke="#fff" stroke-miterlimit="10" stroke-width="2"/>
            <path id="Path_854" data-name="Path 854" d="M4280.285,600.748h3.35a1.072,1.072,0,0,0,1.072-1.072v-3.35a1.073,1.073,0,0,1,1.073-1.073h2.89c10.284,0,10.284-15.966,0-16h-8.385a1.072,1.072,0,0,0-1.072,1.072v19.347A1.072,1.072,0,0,0,4280.285,600.748Zm8.352-10.44h-2.857a1.073,1.073,0,0,1-1.073-1.072v-4a1.061,1.061,0,0,1,1.054-1.071c.953-.007,1.94-.017,2.876.005C4291.832,584.2,4291.647,590.308,4288.637,590.308Z" fill="none" stroke="#fff" stroke-miterlimit="10" stroke-width="2"/>
            <path id="Path_855" data-name="Path 855" d="M4313.948,580.329a1.072,1.072,0,0,0-1.072-1.072H4301.6a1.072,1.072,0,0,0-1.072,1.072v19.347a1.072,1.072,0,0,0,1.072,1.072h11.547a1.072,1.072,0,0,0,1.072-1.072v-2.738a1.072,1.072,0,0,0-1.072-1.072h-6.082a1.073,1.073,0,0,1-1.073-1.073v-1.63a1.073,1.073,0,0,1,1.073-1.072h5.162a1.072,1.072,0,0,0,1.072-1.073v-2.737a1.072,1.072,0,0,0-1.072-1.072H4306v-3.04h6.88a1.073,1.073,0,0,0,1.072-1.073Z" fill="none" stroke="#fff" stroke-miterlimit="10" stroke-width="2"/>
            <path id="Path_856" data-name="Path 856" d="M4326.465,591.967l8.608,8.413a1.4,1.4,0,0,0,.976.4h0a1.4,1.4,0,0,0,1.4-1.4v-19.45a.675.675,0,0,0-.675-.675H4332.5a.675.675,0,0,0-.675.675v7.309a1.073,1.073,0,0,1-1.823.767l-8.634-8.44a1.417,1.417,0,0,0-.99-.4h0a1.418,1.418,0,0,0-1.418,1.417v19.658a.509.509,0,0,0,.509.509h4.662a.509.509,0,0,0,.509-.509v-7.505A1.072,1.072,0,0,1,4326.465,591.967Z" fill="none" stroke="#fff" stroke-miterlimit="10" stroke-width="2"/>
          </g>
        </g>
        <path id="Path_857" data-name="Path 857" d="M4390.654,493.319h58.562v54.727h-58.562" fill="none" stroke="#fff" stroke-miterlimit="10" stroke-width="2"/>
        <line id="Line_171" data-name="Line 171" y2="140.64" transform="translate(4439.132 548.045)" fill="none" stroke="#fff" stroke-miterlimit="10" stroke-width="2"/>
        <path id="Path_858" data-name="Path 858" d="M4382.489,688.685h66.727V703.2h-66.727" fill="none" stroke="#fff" stroke-miterlimit="10" stroke-width="2"/>
      </g>
      <g id="Group_276" data-name="Group 276">
        <path id="Path_859" data-name="Path 859" d="M4365.813,668.756v33.405s12.082,2.919,11.462,27.587l-9.46.043V847.642h6.338v11.22H3992.07v-11.22h5.924V729.748h-5.924s-4.032-18.789,12.879-27.587V668.756h89.627s1.243-14.591,25.815-14.591h85.623s12.854,2.993,16.685,14.591Z" fill="#0c56b7"/>
        <line id="Line_172" data-name="Line 172" y2="117.237" transform="translate(3997.994 729.748)" fill="none" stroke="#fff" stroke-miterlimit="10" stroke-width="2"/>
        <line id="Line_173" data-name="Line 173" y1="117.237" transform="translate(4313.03 729.748)" fill="none" stroke="#fff" stroke-miterlimit="10" stroke-width="2"/>
        <path id="Path_860" data-name="Path 860" d="M4301.982,729.748" fill="none" stroke="#fff" stroke-miterlimit="10" stroke-width="2"/>
        <path id="Path_861" data-name="Path 861" d="M4301.982,816.263" fill="none" stroke="#fff" stroke-miterlimit="10" stroke-width="2"/>
        <rect id="Rectangle_427" data-name="Rectangle 427" width="326.884" height="11.22" transform="translate(4318.954 858.862) rotate(-180)" fill="none" stroke="#fff" stroke-miterlimit="10" stroke-width="2"/>
        <g id="Group_271" data-name="Group 271">
          <path id="Path_862" data-name="Path 862" d="M4131.464,729.791v116.48h48.1V729.791" fill="none" stroke="#fff" stroke-miterlimit="10" stroke-width="2" style="mix-blend-mode: screen;isolation: isolate"/>
          <rect id="Rectangle_428" data-name="Rectangle 428" width="93.776" height="41.956" transform="translate(4176.49 752.496) rotate(90)" fill="none" stroke="#fff" stroke-miterlimit="10" stroke-width="2"/>
          <g id="Group_270" data-name="Group 270">
            <path id="Path_863" data-name="Path 863" d="M4175,794.311c.37,0,.37,1.833,0,1.833h-2.5a.74.74,0,0,0-.74.74v13.857a.74.74,0,0,0,.74.74h2.5c.37,0,.37,1.833,0,1.833h-3.205a1.742,1.742,0,0,1-1.741-1.741V796.052a1.741,1.741,0,0,1,1.741-1.741Z" fill="none" stroke="#fff" stroke-miterlimit="10" stroke-width="2"/>
          </g>
        </g>
        <path id="Path_864" data-name="Path 864" d="M3992.07,729.748h326.884v-7.12c0-7.371-5.976-20.467-13.347-20.467h-300.19c-7.371,0-13.347,13.1-13.347,20.467Z" fill="none" stroke="#fff" stroke-miterlimit="10" stroke-width="2"/>
        <path id="Path_865" data-name="Path 865" d="M4217.295,696.386h88.78v-27.63H4222.7" fill="none" stroke="#fff" stroke-miterlimit="10" stroke-width="2"/>
        <path id="Path_866" data-name="Path 866" d="M4093.729,696.386h123.566v-21.81a20.41,20.41,0,0,0-20.411-20.411H4114.14a20.411,20.411,0,0,0-20.411,20.411Z" fill="none" stroke="#fff" stroke-miterlimit="10" stroke-width="2"/>
        <path id="Path_867" data-name="Path 867" d="M4099.98,696.386h123.566v-21.81a20.41,20.41,0,0,0-20.411-20.411h-82.744" fill="none" stroke="#fff" stroke-miterlimit="10" stroke-width="2"/>
        <path id="Path_868" data-name="Path 868" d="M4099.98,674.576" fill="none" stroke="#fff" stroke-miterlimit="10" stroke-width="2"/>
        <rect id="Rectangle_429" data-name="Rectangle 429" width="119.996" height="17.397" transform="translate(4306.075 841.59) rotate(-180)" fill="none" stroke="#fff" stroke-miterlimit="10" stroke-width="2" style="mix-blend-mode: screen;isolation: isolate"/>
        <g id="Group_275" data-name="Group 275">
          <g id="Group_272" data-name="Group 272">
            <path id="Path_869" data-name="Path 869" d="M4144.738,778.617c3.726-4.554,9.946-11.779,10.774-11.779s7.049,7.107,10.775,11.586l.224-.186c-1-1.2-9.761-11.691-11-11.691s-10,10.67-11,11.886Z" fill="none" stroke="#fff" stroke-miterlimit="10" stroke-width="0.25"/>
          </g>
          <g id="Group_274" data-name="Group 274">
            <rect id="Rectangle_430" data-name="Rectangle 430" width="23.229" height="7.08" rx="0.616" transform="translate(4167.126 785.12) rotate(-180)" fill="none" stroke="#fff" stroke-miterlimit="10" stroke-width="2"/>
            <g id="Group_273" data-name="Group 273" opacity="0.38">
              <path id="Path_870" data-name="Path 870" d="M4160.1,781.578a2.506,2.506,0,1,1,5.011,0A2.506,2.506,0,1,1,4160.1,781.578Zm3.727,0a1.228,1.228,0,1,0-2.45,0A1.228,1.228,0,1,0,4163.825,781.578Z" fill="#fff"/>
              <path id="Path_871" data-name="Path 871" d="M4157.9,784.014v-1.25h-.9a1.819,1.819,0,0,1,0-3.636h2.15v4.886Zm-.894-2.374h.894v-1.4c-.287,0-.6-.007-.894,0C4156.284,780.251,4156.326,781.64,4157.01,781.64Z" fill="#fff"/>
              <path id="Path_872" data-name="Path 872" d="M4151.257,779.128h3.05v4.886h-3.113V782.9h1.87v-.859H4151.4v-1.109h1.661v-.691h-1.807Z" fill="#fff"/>
              <path id="Path_873" data-name="Path 873" d="M4146.362,784.02h-.447v-4.892h1.277v2.394l2.471-2.415h.454v4.907h-1.292v-2.4Z" fill="#fff"/>
            </g>
          </g>
          <circle id="Ellipse_115" data-name="Ellipse 115" cx="0.418" cy="0.418" r="0.418" transform="translate(4155.136 766.481)" fill="none" stroke="#fff" stroke-miterlimit="10" stroke-width="2"/>
        </g>
        <line id="Line_174" data-name="Line 174" x2="57.92" transform="translate(4210.171 729.791)" fill="none" stroke="#fff" stroke-miterlimit="10" stroke-width="1" style="mix-blend-mode: screen;isolation: isolate"/>
        <path id="Path_874" data-name="Path 874" d="M4125.843,729.748v90.608h-120V729.748" fill="none" stroke="#fff" stroke-miterlimit="10" stroke-width="2" style="mix-blend-mode: screen;isolation: isolate"/>
        <path id="Path_875" data-name="Path 875" d="M4121.75,816.263" fill="none" stroke="#fff" stroke-miterlimit="10" stroke-width="2"/>
        <line id="Line_175" data-name="Line 175" y2="90.565" transform="translate(4009.94 729.791)" fill="none" stroke="#fff" stroke-miterlimit="10" stroke-width="2"/>
        <rect id="Rectangle_431" data-name="Rectangle 431" width="119.996" height="17.397" transform="translate(4125.843 841.59) rotate(-180)" fill="none" stroke="#fff" stroke-miterlimit="10" stroke-width="2" style="mix-blend-mode: screen;isolation: isolate"/>
        <path id="Path_876" data-name="Path 876" d="M4093.729,696.386h-88.78v-27.63h89.627" fill="none" stroke="#fff" stroke-miterlimit="10" stroke-width="2"/>
        <line id="Line_176" data-name="Line 176" y2="5.776" transform="translate(4004.949 696.386)" fill="none" stroke="#fff" stroke-miterlimit="10" stroke-width="2"/>
        <line id="Line_177" data-name="Line 177" x2="90.628" y2="90.628" transform="translate(4032.701 729.791)" fill="none" stroke="#fff" stroke-miterlimit="10" stroke-width="1"/>
        <line id="Line_178" data-name="Line 178" x2="90.628" y2="90.628" transform="translate(4009.94 729.791)" fill="none" stroke="#fff" stroke-miterlimit="10" stroke-width="1"/>
        <path id="Path_877" data-name="Path 877" d="M4306.075,729.748v90.608h-120V729.748" fill="none" stroke="#fff" stroke-miterlimit="10" stroke-width="2" style="mix-blend-mode: screen;isolation: isolate"/>
        <line id="Line_179" data-name="Line 179" y2="90.565" transform="translate(4190.172 729.791)" fill="none" stroke="#fff" stroke-miterlimit="10" stroke-width="2"/>
        <line id="Line_180" data-name="Line 180" x2="90.628" y2="90.628" transform="translate(4212.933 729.791)" fill="none" stroke="#fff" stroke-miterlimit="10" stroke-width="1"/>
        <line id="Line_181" data-name="Line 181" x2="90.628" y2="90.628" transform="translate(4190.172 729.791)" fill="none" stroke="#fff" stroke-miterlimit="10" stroke-width="1"/>
        <path id="Path_878" data-name="Path 878" d="M4377.275,722.628c0-7.371-5.975-20.467-13.347-20.467" fill="none" stroke="#fff" stroke-miterlimit="10" stroke-width="2"/>
        <path id="Path_879" data-name="Path 879" d="M4377.275,722.628v7.12h-58.321" fill="none" stroke="#fff" stroke-miterlimit="10" stroke-width="2"/>
        <path id="Path_880" data-name="Path 880" d="M4365.813,696.386v5.776h-59.738v-5.776h59.738v-27.63h-59.738" fill="none" stroke="#fff" stroke-miterlimit="10" stroke-width="2"/>
        <line id="Line_182" data-name="Line 182" y2="117.851" transform="translate(4367.814 729.791)" fill="none" stroke="#fff" stroke-miterlimit="10" stroke-width="2"/>
        <path id="Path_881" data-name="Path 881" d="M4318.954,847.642h55.2v11.22h-55.2" fill="none" stroke="#fff" stroke-miterlimit="10" stroke-width="2"/>
      </g>
    </g>
  </g>
</svg>
