<svg xmlns="http://www.w3.org/2000/svg" width="40.205" height="32.647" viewBox="0 0 40.205 32.647">
  <path id="Twitter-org" d="M8340.568,1516.962a16.649,16.649,0,0,1-4.735,1.3,8.229,8.229,0,0,0,3.621-4.562,16.428,16.428,0,0,1-5.233,2,8.248,8.248,0,0,0-14.256,5.639,8.641,8.641,0,0,0,.21,1.881,23.45,23.45,0,0,1-17-8.566,8.246,8.246,0,0,0,2.532,10.972,8.292,8.292,0,0,1-3.738-1.03v.11a8.246,8.246,0,0,0,6.616,8.078,8.4,8.4,0,0,1-3.722.143,8.231,8.231,0,0,0,7.7,5.722,16.607,16.607,0,0,1-12.2,3.392,23.463,23.463,0,0,0,36.118-19.742v-1.073A16.733,16.733,0,0,0,8340.568,1516.962Z" transform="translate(-8300.363 -1513.1)" fill="#ff8e2c"/>
</svg>
