<svg xmlns="http://www.w3.org/2000/svg" width="27.371" height="22.226" viewBox="0 0 27.371 22.226">
  <path id="Twitter-10" d="M1698.408,30.734a11.351,11.351,0,0,1-3.224.884,5.6,5.6,0,0,0,2.465-3.106,11.188,11.188,0,0,1-3.562,1.361,5.615,5.615,0,0,0-9.705,3.839,5.817,5.817,0,0,0,.143,1.281,15.969,15.969,0,0,1-11.573-5.832,5.616,5.616,0,0,0,1.724,7.47,5.661,5.661,0,0,1-2.545-.7V36a5.615,5.615,0,0,0,4.505,5.5,5.738,5.738,0,0,1-2.534.1,5.6,5.6,0,0,0,5.24,3.9,11.3,11.3,0,0,1-8.305,2.308,15.972,15.972,0,0,0,24.588-13.44v-.73A11.388,11.388,0,0,0,1698.408,30.734Z" transform="translate(-1671.037 -28.105)" fill="#fff"/>
</svg>
